<svg xmlns="http://www.w3.org/2000/svg" viewBox="0 0 53.25 51.25"><defs><style>.cls-1{fill:#262626;}</style></defs><g id="Слой_2" data-name="Слой 2"><g id="Layer_1" data-name="Layer 1"><path class="cls-1" d="M2.62,19.25A.63.63,0,0,1,2,18.62v-4a.63.63,0,0,1,1.25,0v4A.63.63,0,0,1,2.62,19.25Z"/><path class="cls-1" d="M2.62,37.25A.63.63,0,0,1,2,36.62v-4a.63.63,0,0,1,1.25,0v4A.63.63,0,0,1,2.62,37.25Z"/><path class="cls-1" d="M26.62,15.25H.62A.63.63,0,0,1,0,14.62V.62A.62.62,0,0,1,.62,0h50a.63.63,0,0,1,.63.62v13a.63.63,0,1,1-1.25,0V1.25H1.25V14H26.62a.63.63,0,1,1,0,1.25Z"/><path class="cls-1" d="M24.62,33.25H.62A.63.63,0,0,1,0,32.62v-14A.62.62,0,0,1,.62,18h24a.63.63,0,1,1,0,1.25H1.25V32H24.62a.63.63,0,1,1,0,1.25Z"/><path class="cls-1" d="M50.62,51.25H.62A.63.63,0,0,1,0,50.62v-14A.62.62,0,0,1,.62,36h26a.63.63,0,1,1,0,1.25H1.25V50H50V37.62a.63.63,0,0,1,1.25,0v13A.63.63,0,0,1,50.62,51.25Z"/><path class="cls-1" d="M39.62,39.25A13.63,13.63,0,1,1,53.25,25.62,13.64,13.64,0,0,1,39.62,39.25Zm0-26A12.38,12.38,0,1,0,52,25.62,12.39,12.39,0,0,0,39.62,13.25Z"/><path class="cls-1" d="M39.62,32.25a6.63,6.63,0,1,1,6.63-6.63A6.63,6.63,0,0,1,39.62,32.25Zm0-12A5.38,5.38,0,1,0,45,25.62,5.38,5.38,0,0,0,39.62,20.25Z"/><path class="cls-1" d="M35.62,26.25h-9a.63.63,0,0,1,0-1.25h9a.63.63,0,1,1,0,1.25Z"/><path class="cls-1" d="M52.62,26.25h-9a.63.63,0,0,1,0-1.25h9a.63.63,0,1,1,0,1.25Z"/><path class="cls-1" d="M39.62,22.25a.63.63,0,0,1-.62-.63v-9a.63.63,0,0,1,1.25,0v9A.63.63,0,0,1,39.62,22.25Z"/><path class="cls-1" d="M39.62,39.25a.63.63,0,0,1-.62-.63v-9a.63.63,0,0,1,1.25,0v9A.63.63,0,0,1,39.62,39.25Z"/><path class="cls-1" d="M4.62,11.25A.63.63,0,0,1,4,10.62v-6a.63.63,0,0,1,1.25,0v6A.63.63,0,0,1,4.62,11.25Z"/><path class="cls-1" d="M8.62,11.25A.63.63,0,0,1,8,10.62v-6a.63.63,0,0,1,1.25,0v6A.63.63,0,0,1,8.62,11.25Z"/><path class="cls-1" d="M12.62,11.25a.63.63,0,0,1-.62-.63v-6a.63.63,0,0,1,1.25,0v6A.63.63,0,0,1,12.62,11.25Z"/><path class="cls-1" d="M16.62,11.25a.63.63,0,0,1-.62-.63v-6a.63.63,0,0,1,1.25,0v6A.63.63,0,0,1,16.62,11.25Z"/><path class="cls-1" d="M4.62,29.25A.63.63,0,0,1,4,28.62v-6a.63.63,0,0,1,1.25,0v6A.63.63,0,0,1,4.62,29.25Z"/><path class="cls-1" d="M8.62,29.25A.63.63,0,0,1,8,28.62v-6a.63.63,0,0,1,1.25,0v6A.63.63,0,0,1,8.62,29.25Z"/><path class="cls-1" d="M12.62,29.25a.63.63,0,0,1-.62-.63v-6a.63.63,0,0,1,1.25,0v6A.63.63,0,0,1,12.62,29.25Z"/><path class="cls-1" d="M16.62,29.25a.63.63,0,0,1-.62-.63v-6a.63.63,0,0,1,1.25,0v6A.63.63,0,0,1,16.62,29.25Z"/><path class="cls-1" d="M4.62,47.25A.63.63,0,0,1,4,46.62v-6a.63.63,0,0,1,1.25,0v6A.63.63,0,0,1,4.62,47.25Z"/><path class="cls-1" d="M8.62,47.25A.63.63,0,0,1,8,46.62v-6a.63.63,0,0,1,1.25,0v6A.63.63,0,0,1,8.62,47.25Z"/><path class="cls-1" d="M12.62,47.25a.63.63,0,0,1-.62-.63v-6a.63.63,0,0,1,1.25,0v6A.63.63,0,0,1,12.62,47.25Z"/><path class="cls-1" d="M16.62,47.25a.63.63,0,0,1-.62-.63v-6a.63.63,0,0,1,1.25,0v6A.63.63,0,0,1,16.62,47.25Z"/><path class="cls-1" d="M20.62,11.25a.63.63,0,0,1-.62-.63v-6a.63.63,0,0,1,1.25,0v6A.63.63,0,0,1,20.62,11.25Z"/><path class="cls-1" d="M20.62,29.25a.63.63,0,0,1-.62-.63v-6a.63.63,0,0,1,1.25,0v6A.63.63,0,0,1,20.62,29.25Z"/><path class="cls-1" d="M20.62,47.25a.63.63,0,0,1-.62-.63v-6a.63.63,0,0,1,1.25,0v6A.63.63,0,0,1,20.62,47.25Z"/><circle class="cls-1" cx="44.63" cy="43.63" r="1"/><circle class="cls-1" cx="39.63" cy="43.63" r="1"/><circle class="cls-1" cx="34.63" cy="43.63" r="1"/><circle class="cls-1" cx="44.63" cy="7.63" r="1"/><circle class="cls-1" cx="39.63" cy="7.63" r="1"/><circle class="cls-1" cx="34.63" cy="7.63" r="1"/><circle class="cls-1" cx="29.63" cy="43.63" r="1"/><circle class="cls-1" cx="29.63" cy="7.63" r="1"/></g></g></svg>