<svg xmlns="http://www.w3.org/2000/svg" viewBox="0 0 53.25 45.25"><defs><style>.cls-1{fill:#262626;}</style></defs><g id="Слой_2" data-name="Слой 2"><g id="Layer_1" data-name="Layer 1"><path class="cls-1" d="M51.62,45.25h-50A1.63,1.63,0,0,1,0,43.62v-38A1.63,1.63,0,0,1,1.62,4h4a.63.63,0,1,1,0,1.25h-4a.38.38,0,0,0-.37.37v38a.38.38,0,0,0,.37.38h50a.38.38,0,0,0,.38-.38v-38a.38.38,0,0,0-.38-.37h-4a.63.63,0,0,1,0-1.25h4a1.63,1.63,0,0,1,1.63,1.62v38A1.63,1.63,0,0,1,51.62,45.25Z"/><path class="cls-1" d="M26.62,45.25a.63.63,0,0,1-.62-.63,4.38,4.38,0,0,0-4.38-4.37h-16A.63.63,0,0,1,5,39.62V.62A.62.62,0,0,1,5.62,0h16a5.63,5.63,0,0,1,5.63,5.62v2a.63.63,0,1,1-1.25,0v-2a4.38,4.38,0,0,0-4.38-4.37H6.25V39H21.62A5.63,5.63,0,0,1,26,41.09V35.62a.63.63,0,0,1,1.25,0v9A.63.63,0,0,1,26.62,45.25Z"/><path class="cls-1" d="M26.62,45.25a.63.63,0,0,1-.62-.63A5.62,5.62,0,0,1,31.62,39H47V1.25H31.62a4.37,4.37,0,0,0-4.37,4.37.63.63,0,1,1-1.25,0A5.62,5.62,0,0,1,31.62,0h16a.63.63,0,0,1,.63.62v39a.63.63,0,0,1-.63.63h-16a4.37,4.37,0,0,0-4.37,4.37A.63.63,0,0,1,26.62,45.25Z"/><path class="cls-1" d="M33.62,31.25h-14A2.63,2.63,0,0,1,17,28.62v-14A2.63,2.63,0,0,1,19.62,12h14a2.63,2.63,0,0,1,2.63,2.62v14A2.63,2.63,0,0,1,33.62,31.25Zm-14-18a1.38,1.38,0,0,0-1.37,1.37v14A1.38,1.38,0,0,0,19.62,30h14A1.38,1.38,0,0,0,35,28.62v-14a1.38,1.38,0,0,0-1.38-1.37Z"/><path class="cls-1" d="M30.62,26.25h-8a.63.63,0,0,1-.62-.63v-8a.62.62,0,0,1,.62-.62h8a.63.63,0,0,1,.63.62v8A.63.63,0,0,1,30.62,26.25ZM23.25,25H30V18.25H23.25Z"/><path class="cls-1" d="M38.62,16.25h-3a.63.63,0,0,1,0-1.25h3a.63.63,0,1,1,0,1.25Z"/><path class="cls-1" d="M17.62,16.25h-3a.63.63,0,0,1,0-1.25h3a.63.63,0,1,1,0,1.25Z"/><path class="cls-1" d="M38.62,20.25h-3a.63.63,0,0,1,0-1.25h3a.63.63,0,1,1,0,1.25Z"/><path class="cls-1" d="M17.62,20.25h-3a.63.63,0,0,1,0-1.25h3a.63.63,0,1,1,0,1.25Z"/><path class="cls-1" d="M38.62,24.25h-3a.63.63,0,0,1,0-1.25h3a.63.63,0,1,1,0,1.25Z"/><path class="cls-1" d="M17.62,24.25h-3a.63.63,0,0,1,0-1.25h3a.63.63,0,1,1,0,1.25Z"/><path class="cls-1" d="M38.62,28.25h-3a.63.63,0,0,1,0-1.25h3a.63.63,0,1,1,0,1.25Z"/><path class="cls-1" d="M17.62,28.25h-3a.63.63,0,0,1,0-1.25h3a.63.63,0,1,1,0,1.25Z"/><path class="cls-1" d="M20.62,13.25a.63.63,0,0,1-.62-.63v-3a.63.63,0,0,1,1.25,0v3A.63.63,0,0,1,20.62,13.25Z"/><path class="cls-1" d="M20.62,34.25a.63.63,0,0,1-.62-.63v-3a.63.63,0,0,1,1.25,0v3A.63.63,0,0,1,20.62,34.25Z"/><path class="cls-1" d="M24.62,13.25a.63.63,0,0,1-.62-.63v-3a.63.63,0,0,1,1.25,0v3A.63.63,0,0,1,24.62,13.25Z"/><path class="cls-1" d="M24.62,34.25a.63.63,0,0,1-.62-.63v-3a.63.63,0,0,1,1.25,0v3A.63.63,0,0,1,24.62,34.25Z"/><path class="cls-1" d="M28.62,13.25a.63.63,0,0,1-.62-.63v-3a.63.63,0,0,1,1.25,0v3A.63.63,0,0,1,28.62,13.25Z"/><path class="cls-1" d="M28.62,34.25a.63.63,0,0,1-.62-.63v-3a.63.63,0,0,1,1.25,0v3A.63.63,0,0,1,28.62,34.25Z"/><path class="cls-1" d="M32.62,13.25a.63.63,0,0,1-.62-.63v-3a.63.63,0,0,1,1.25,0v3A.63.63,0,0,1,32.62,13.25Z"/><path class="cls-1" d="M32.62,34.25a.63.63,0,0,1-.62-.63v-3a.63.63,0,0,1,1.25,0v3A.63.63,0,0,1,32.62,34.25Z"/></g></g></svg>