<svg xmlns="http://www.w3.org/2000/svg" viewBox="0 0 53.25 53.25"><defs><style>.cls-1{fill:#262626;}</style></defs><g id="Слой_2" data-name="Слой 2"><g id="Layer_1" data-name="Layer 1"><path class="cls-1" d="M51.62,49.25h-10a.63.63,0,0,1,0-1.25h10a.38.38,0,0,0,.38-.38v-46a.38.38,0,0,0-.38-.37h-50a.38.38,0,0,0-.37.37v46a.38.38,0,0,0,.37.38h10a.63.63,0,1,1,0,1.25h-10A1.63,1.63,0,0,1,0,47.62v-46A1.63,1.63,0,0,1,1.62,0h50a1.63,1.63,0,0,1,1.63,1.62v46A1.63,1.63,0,0,1,51.62,49.25Z"/><path class="cls-1" d="M49.12,9.25h-45A.63.63,0,0,1,4.12,8h45a.63.63,0,1,1,0,1.25Z"/><circle class="cls-1" cx="4.63" cy="4.63" r="1"/><circle class="cls-1" cx="8.63" cy="4.63" r="1"/><circle class="cls-1" cx="12.63" cy="4.63" r="1"/><path class="cls-1" d="M26.62,53.25A20.63,20.63,0,1,1,47.25,32.62,20.65,20.65,0,0,1,26.62,53.25Zm0-40A19.38,19.38,0,1,0,46,32.62,19.39,19.39,0,0,0,26.62,13.25Z"/><path class="cls-1" d="M26.62,35.25a2.63,2.63,0,1,1,2.63-2.63A2.63,2.63,0,0,1,26.62,35.25Zm0-4A1.38,1.38,0,1,0,28,32.62,1.38,1.38,0,0,0,26.62,31.25Z"/><path class="cls-1" d="M11.33,31.92a1,1,0,0,0-1.41,0,1,1,0,0,0,0,1.41,1,1,0,0,0,.71.29.93.93,0,0,0,.7-.29,1,1,0,0,0,.29-.71A1,1,0,0,0,11.33,31.92Z"/><path class="cls-1" d="M43.56,32.24a.9.9,0,0,0-.23-.32,1,1,0,0,0-1.09-.23.75.75,0,0,0-.32.23,1,1,0,0,0-.3.71,1.08,1.08,0,0,0,.08.38.84.84,0,0,0,.22.32,1,1,0,0,0,1.41,0,1,1,0,0,0,.23-.32,1,1,0,0,0,.06-.38A1.06,1.06,0,0,0,43.56,32.24Z"/><path class="cls-1" d="M27,15.7a1,1,0,0,0-.76,0,.91.91,0,0,0-.32.22,1,1,0,0,0-.31.7,1,1,0,0,0,1.71.7,1.1,1.1,0,0,0,.22-.31,1.07,1.07,0,0,0,.07-.39,1,1,0,0,0-.29-.7A1.31,1.31,0,0,0,27,15.7Z"/><path class="cls-1" d="M38.63,43.23a.69.69,0,0,0-.31-.21.94.94,0,0,0-.77,0,1,1,0,0,0-.61.91,1,1,0,0,0,.08.39.89.89,0,0,0,.21.33,1,1,0,0,0,.7.29,1,1,0,0,0,.7-.29,1,1,0,0,0,.31-.72,1,1,0,0,0-.08-.38A1.12,1.12,0,0,0,38.63,43.23Z"/><path class="cls-1" d="M15.7,20.39a1,1,0,0,0-1.1.21,1.1,1.1,0,0,0-.21.33.93.93,0,0,0-.08.39,1.08,1.08,0,0,0,.08.38,1,1,0,0,0,.21.32,1,1,0,0,0,.72.29.87.87,0,0,0,.38-.08A1,1,0,0,0,16,22a1,1,0,0,0,0-1.42A1.6,1.6,0,0,0,15.7,20.39Z"/><path class="cls-1" d="M38.32,20.38a1.13,1.13,0,0,0-.77,0,1.18,1.18,0,0,0-.32.21.81.81,0,0,0-.21.34.93.93,0,0,0-.08.39,1,1,0,0,0,.29.7.94.94,0,0,0,.7.29.92.92,0,0,0,.71-.29,1.14,1.14,0,0,0,.22-.32,1.08,1.08,0,0,0,.08-.38,1,1,0,0,0-.3-.73A.94.94,0,0,0,38.32,20.38Z"/><path class="cls-1" d="M15.7,43a1,1,0,0,0-1.39.91,1,1,0,0,0,1,1,1,1,0,0,0,.38-.08,1.6,1.6,0,0,0,.32-.21,1,1,0,0,0,.29-.72,1,1,0,0,0-.29-.7A1,1,0,0,0,15.7,43Z"/><path class="cls-1" d="M33.45,17.12a.94.94,0,0,0-.32-.21,1.07,1.07,0,0,0-1.1.21.9.9,0,0,0-.2.34.78.78,0,0,0-.08.39.77.77,0,0,0,.08.38.91.91,0,0,0,.2.32,1,1,0,0,0,.71.29.7.7,0,0,0,.39-.08.72.72,0,0,0,.32-.21.84.84,0,0,0,.22-.32,1,1,0,0,0,0-.77A.83.83,0,0,0,33.45,17.12Z"/><path class="cls-1" d="M21.21,17.14a1.14,1.14,0,0,0-.32-.22,1,1,0,0,0-1.09.22.83.83,0,0,0-.22.32,1.09,1.09,0,0,0-.08.39,1,1,0,0,0,.08.38,1.14,1.14,0,0,0,.22.32.94.94,0,0,0,.71.29,1,1,0,0,0,1-1,1.09,1.09,0,0,0-.08-.39A.72.72,0,0,0,21.21,17.14Z"/><path class="cls-1" d="M12.55,25.8a1.14,1.14,0,0,0-.32-.22,1,1,0,0,0-1.1.22,1,1,0,0,0,0,1.41,1,1,0,0,0,.72.29,1,1,0,0,0,.38-.08.93.93,0,0,0,.32-.21,1,1,0,0,0,.29-.7,1.18,1.18,0,0,0-.06-.39A1.09,1.09,0,0,0,12.55,25.8Z"/><path class="cls-1" d="M42.1,38a.81.81,0,0,0-.32-.21.92.92,0,0,0-.76,0,1.11,1.11,0,0,0-.32.21,1,1,0,0,0-.21.32,1,1,0,0,0,0,.76.76.76,0,0,0,.22.32,1,1,0,0,0,.7.31.92.92,0,0,0,.7-.31.82.82,0,0,0,.23-.32.89.89,0,0,0,.08-.38,1.08,1.08,0,0,0-.08-.38A1.12,1.12,0,0,0,42.1,38Z"/><path class="cls-1" d="M12.55,38a1.14,1.14,0,0,0-.32-.22,1,1,0,0,0-1.1.22,1.6,1.6,0,0,0-.21.32,1.08,1.08,0,0,0-.08.38,1,1,0,0,0,.29.71,1,1,0,0,0,.72.3,1,1,0,0,0,.38-.08,1.14,1.14,0,0,0,.32-.22,1,1,0,0,0,.29-.71,1.31,1.31,0,0,0-.06-.38A1.72,1.72,0,0,0,12.55,38Z"/><path class="cls-1" d="M41.4,27.5a.92.92,0,0,0,.71-.29,1,1,0,0,0,.23-.32,1.36,1.36,0,0,0,.08-.39,1.23,1.23,0,0,0-.08-.38.86.86,0,0,0-.23-.33,1,1,0,0,0-1.42,0,.93.93,0,0,0-.21.33.84.84,0,0,0-.08.38,1,1,0,0,0,.29.71A1,1,0,0,0,41.4,27.5Z"/><path class="cls-1" d="M37.09,37.58a.64.64,0,0,1-.24,0L28.23,34a.62.62,0,0,1-.33-.82.62.62,0,0,1,.81-.34l8.62,3.57a.62.62,0,0,1,.33.82A.62.62,0,0,1,37.09,37.58Z"/><path class="cls-1" d="M24.78,32.48a.67.67,0,0,1-.24,0l-2.54-1a.63.63,0,0,1,.48-1.16L25,31.28a.62.62,0,0,1,.33.82A.62.62,0,0,1,24.78,32.48Z"/></g></g></svg>