<svg xmlns="http://www.w3.org/2000/svg" viewBox="0 0 53.25 53.25"><defs><style>.cls-1{fill:#262626;}</style></defs><g id="Слой_2" data-name="Слой 2"><g id="Layer_1" data-name="Layer 1"><path class="cls-1" d="M51.62,49.25h-12a.63.63,0,0,1,0-1.25h12a.38.38,0,0,0,.38-.38v-46a.38.38,0,0,0-.38-.37h-50a.38.38,0,0,0-.37.37v46a.38.38,0,0,0,.37.38h12a.63.63,0,1,1,0,1.25h-12A1.63,1.63,0,0,1,0,47.62v-46A1.63,1.63,0,0,1,1.62,0h50a1.63,1.63,0,0,1,1.63,1.62v46A1.63,1.63,0,0,1,51.62,49.25Z"/><path class="cls-1" d="M49.12,9.25h-45A.63.63,0,0,1,4.12,8h45a.63.63,0,1,1,0,1.25Z"/><circle class="cls-1" cx="4.63" cy="4.63" r="1"/><circle class="cls-1" cx="8.63" cy="4.63" r="1"/><circle class="cls-1" cx="12.63" cy="4.63" r="1"/><path class="cls-1" d="M21.78,53.25a.69.69,0,0,1-.24,0l-4.46-1.84a.63.63,0,0,1-.36-.74l1-3.8a14.85,14.85,0,0,1-3.31-3.31l-3.8,1a.63.63,0,0,1-.74-.36L8.05,39.71a.63.63,0,0,1,.26-.78l3.41-2a14.76,14.76,0,0,1,0-4.69l-3.41-2a.63.63,0,0,1-.26-.78l1.84-4.46a.63.63,0,0,1,.74-.36l3.8,1a14.85,14.85,0,0,1,3.31-3.31l-1-3.8a.63.63,0,0,1,.36-.74l4.46-1.84a.63.63,0,0,1,.78.26l2,3.41a15.06,15.06,0,0,1,4.69,0l2-3.41a.63.63,0,0,1,.78-.26l4.46,1.84a.63.63,0,0,1,.36.74l-1,3.8a14.85,14.85,0,0,1,3.31,3.31l3.8-1a.63.63,0,0,1,.74.36l1.84,4.46a.63.63,0,0,1-.26.78l-3.41,2a14.76,14.76,0,0,1,0,4.69l3.41,2a.63.63,0,0,1,.26.78l-1.84,4.46a.63.63,0,0,1-.74.36l-3.8-1a14.85,14.85,0,0,1-3.31,3.31l1,3.8a.63.63,0,0,1-.36.74L31.71,53.2a.63.63,0,0,1-.78-.26l-2-3.41a15.06,15.06,0,0,1-4.69,0l-2,3.41A.61.61,0,0,1,21.78,53.25Zm7.51-5a.63.63,0,0,1,.54.31l1.91,3.32,3.44-1.43-1-3.69a.62.62,0,0,1,.25-.68,13.89,13.89,0,0,0,3.61-3.6.62.62,0,0,1,.68-.25l3.68,1,1.43-3.44-3.31-1.91a.61.61,0,0,1-.3-.65,13.88,13.88,0,0,0,0-5.1.62.62,0,0,1,.3-.66l3.32-1.91-1.43-3.44-3.69,1a.62.62,0,0,1-.68-.25,13.89,13.89,0,0,0-3.6-3.61.62.62,0,0,1-.25-.68l1-3.68-3.44-1.43-1.91,3.31a.61.61,0,0,1-.65.3,13.88,13.88,0,0,0-5.1,0,.62.62,0,0,1-.66-.3l-1.91-3.32-3.44,1.43,1,3.69a.62.62,0,0,1-.25.68,13.89,13.89,0,0,0-3.61,3.6.62.62,0,0,1-.68.25l-3.68-1L9.41,29.51l3.31,1.91a.61.61,0,0,1,.3.65,13.88,13.88,0,0,0,0,5.1.62.62,0,0,1-.3.66L9.41,39.74l1.43,3.44,3.69-1a.62.62,0,0,1,.68.25,13.89,13.89,0,0,0,3.6,3.61.62.62,0,0,1,.25.68l-1,3.68,3.44,1.43,1.91-3.31a.61.61,0,0,1,.65-.3,13.88,13.88,0,0,0,5.1,0Zm-2.67-6.53a7.06,7.06,0,1,1,7.06-7.06A7.07,7.07,0,0,1,26.62,41.68Zm0-12.86a5.81,5.81,0,1,0,5.81,5.8A5.8,5.8,0,0,0,26.62,28.82Z"/></g></g></svg>