<svg xmlns="http://www.w3.org/2000/svg" viewBox="0 0 53.25 53.25"><defs><style>.cls-1{fill:#262626;}</style></defs><g id="Слой_2" data-name="Слой 2"><g id="Layer_1" data-name="Layer 1"><path class="cls-1" d="M48.62,53.25a4.59,4.59,0,0,1-3.27-1.36L33,39.43a.58.58,0,0,1-.18-.5.61.61,0,0,1,.27-.46A20.12,20.12,0,0,0,38.51,33a.67.67,0,0,1,.46-.27.65.65,0,0,1,.5.18L51.9,45.35a4.63,4.63,0,0,1-3.28,7.9ZM34.39,39.08,46.24,51A3.45,3.45,0,0,0,51,51a3.37,3.37,0,0,0,0-4.77h0L39.12,34.34A21.7,21.7,0,0,1,34.39,39.08Z"/><path class="cls-1" d="M21.62,43.25a21.62,21.62,0,1,1,12.16-3.74A21.65,21.65,0,0,1,21.62,43.25Zm0-42A20.38,20.38,0,1,0,33.08,38.47,20.39,20.39,0,0,0,42,21.62,20.4,20.4,0,0,0,21.62,1.25Z"/><path class="cls-1" d="M21.62,37.25a15.63,15.63,0,1,1,8.79-2.7A15.64,15.64,0,0,1,21.62,37.25Zm0-30A14.38,14.38,0,1,0,36,21.62,14.39,14.39,0,0,0,21.62,7.25Z"/><path class="cls-1" d="M19.68,32.81a.62.62,0,0,1-.59-.45L14.63,17.44l-1.41,4.38a.62.62,0,0,1-.6.43h-6a.63.63,0,0,1,0-1.25h5.55l1.89-5.87a.62.62,0,0,1,.59-.43h0a.62.62,0,0,1,.59.45l4.33,14.51L23.44,11.5A.63.63,0,0,1,24,11a.64.64,0,0,1,.63.45l4,13.72L30,21.41a.61.61,0,0,1,.58-.41h6a.63.63,0,1,1,0,1.25H31.06l-1.92,5.13a.63.63,0,0,1-.61.41.65.65,0,0,1-.58-.46l-3.8-13.14L20.3,32.31a.63.63,0,0,1-.59.5Z"/></g></g></svg>