<svg xmlns="http://www.w3.org/2000/svg" viewBox="0 0 53.25 53.25"><defs><style>.cls-1{fill:#262626;}</style></defs><g id="Слой_2" data-name="Слой 2"><g id="Layer_1" data-name="Layer 1"><path class="cls-1" d="M7.62,35.25h-5A2.63,2.63,0,0,1,0,32.62v-30A2.63,2.63,0,0,1,2.62,0h16a.63.63,0,0,1,.53.28L23,6H40.62a2.63,2.63,0,0,1,2.63,2.62v13a.63.63,0,1,1-1.25,0v-13a1.38,1.38,0,0,0-1.38-1.37h-18A.63.63,0,0,1,22.1,7L18.29,1.25H2.62A1.38,1.38,0,0,0,1.25,2.62v30A1.38,1.38,0,0,0,2.62,34h5a.63.63,0,1,1,0,1.25Z"/><path class="cls-1" d="M15.62,7.25h-9A.63.63,0,0,1,6.62,6h9a.63.63,0,1,1,0,1.25Z"/><path class="cls-1" d="M50.62,53.25h-38A2.63,2.63,0,0,1,10,50.62v-30A2.63,2.63,0,0,1,12.62,18h16a.63.63,0,0,1,.53.28L33,24H50.62a2.63,2.63,0,0,1,2.63,2.62v24A2.63,2.63,0,0,1,50.62,53.25Zm-38-34a1.38,1.38,0,0,0-1.37,1.37v30A1.38,1.38,0,0,0,12.62,52h38A1.38,1.38,0,0,0,52,50.62v-24a1.38,1.38,0,0,0-1.38-1.37h-18A.63.63,0,0,1,32.1,25l-3.81-5.72Z"/><path class="cls-1" d="M25.62,25.25h-9a.63.63,0,0,1,0-1.25h9a.63.63,0,1,1,0,1.25Z"/></g></g></svg>