<svg xmlns="http://www.w3.org/2000/svg" viewBox="0 0 53.25 53.25"><defs><style>.cls-1{fill:#262626;}</style></defs><g id="Слой_2" data-name="Слой 2"><g id="Layer_1" data-name="Layer 1"><path class="cls-1" d="M52.63,35.25h-23a.63.63,0,1,1,0-1.25H52V8.88L44.37,1.25H27.25V15.63a.63.63,0,0,1-1.25,0V.63A.63.63,0,0,1,26.63,0h18a.67.67,0,0,1,.44.18l8,8a.67.67,0,0,1,.18.45v26A.62.62,0,0,1,52.63,35.25Z"/><path class="cls-1" d="M52.63,9.25h-8A.63.63,0,0,1,44,8.63v-8a.61.61,0,0,1,.39-.58.62.62,0,0,1,.68.13l8,8a.62.62,0,0,1,.13.68A.61.61,0,0,1,52.63,9.25ZM45.25,8h5.87L45.25,2.13Z"/><path class="cls-1" d="M26.63,53.25h-18a.63.63,0,0,1-.45-.18l-8-8A.67.67,0,0,1,0,44.63v-26A.63.63,0,0,1,.63,18h26a.63.63,0,0,1,.62.63v34A.62.62,0,0,1,26.63,53.25ZM8.88,52H26V19.25H1.25V44.37Z"/><path class="cls-1" d="M8.63,53.25a.63.63,0,0,1-.45-.18l-8-8a.62.62,0,0,1-.13-.68A.61.61,0,0,1,.63,44h8a.63.63,0,0,1,.62.63v8a.61.61,0,0,1-.39.57A.59.59,0,0,1,8.63,53.25Zm-6.5-8L8,51.12V45.25Z"/><path class="cls-1" d="M16.63,9.25a.63.63,0,0,1-.45-1.07l3.56-3.55L16.18,1.07a.64.64,0,0,1,0-.89.64.64,0,0,1,.89,0l4,4a.64.64,0,0,1,0,.89l-4,4A.64.64,0,0,1,16.63,9.25Z"/><path class="cls-1" d="M6.63,15.25A.63.63,0,0,1,6,14.63v-9A1.63,1.63,0,0,1,7.63,4h13a.63.63,0,0,1,0,1.25h-13a.38.38,0,0,0-.38.38v9A.62.62,0,0,1,6.63,15.25Z"/><path class="cls-1" d="M36.63,53.25a.64.64,0,0,1-.45-.18l-4-4a.64.64,0,0,1,0-.89l4-4a.63.63,0,0,1,.89.89l-3.56,3.56,3.56,3.55a.63.63,0,0,1-.44,1.07Z"/><path class="cls-1" d="M45.63,49.25h-13a.63.63,0,1,1,0-1.25h13a.38.38,0,0,0,.37-.37v-9a.63.63,0,1,1,1.25,0v9A1.63,1.63,0,0,1,45.63,49.25Z"/></g></g></svg>