<svg xmlns="http://www.w3.org/2000/svg" viewBox="0 0 53.25 53.25"><defs><style>.cls-1{fill:#262626;}</style></defs><g id="Слой_2" data-name="Слой 2"><g id="Layer_1" data-name="Layer 1"><path class="cls-1" d="M51.12,39.25h-49a.63.63,0,0,1-.62-.63V.62A.62.62,0,0,1,2.12,0h49a.63.63,0,0,1,.63.62v38A.63.63,0,0,1,51.12,39.25ZM2.75,38H50.5V1.25H2.75Z"/><path class="cls-1" d="M52.62,39.25H.62A.63.63,0,0,1,.62,38h52a.63.63,0,1,1,0,1.25Z"/><path class="cls-1" d="M52.62,1.25H.62A.63.63,0,0,1,.62,0h52a.63.63,0,1,1,0,1.25Z"/><path class="cls-1" d="M26.62,47.25a.63.63,0,0,1-.62-.63v-8a.63.63,0,0,1,1.25,0v8A.63.63,0,0,1,26.62,47.25Z"/><path class="cls-1" d="M26.62,53.25a3.63,3.63,0,1,1,3.63-3.63A3.63,3.63,0,0,1,26.62,53.25Zm0-6A2.38,2.38,0,1,0,29,49.62,2.38,2.38,0,0,0,26.62,47.25Z"/><path class="cls-1" d="M23.62,36.25a.63.63,0,0,1-.62-.63V16.25H19.25V35.62a.63.63,0,1,1-1.25,0v-20a.62.62,0,0,1,.62-.62h5a.63.63,0,0,1,.63.62v20A.63.63,0,0,1,23.62,36.25Z"/><path class="cls-1" d="M12.62,36.25a.63.63,0,0,1-.62-.63V28.25H8.25v7.37a.63.63,0,1,1-1.25,0v-8A.62.62,0,0,1,7.62,27h5a.63.63,0,0,1,.63.62v8A.63.63,0,0,1,12.62,36.25Z"/><path class="cls-1" d="M34.62,36.25a.63.63,0,0,1-.62-.63V20.25H30.25V35.62a.63.63,0,1,1-1.25,0v-16a.62.62,0,0,1,.62-.62h5a.63.63,0,0,1,.63.62v16A.63.63,0,0,1,34.62,36.25Z"/><path class="cls-1" d="M45.62,36.25a.63.63,0,0,1-.62-.63V10.25H41.25V35.62a.63.63,0,1,1-1.25,0v-26A.62.62,0,0,1,40.62,9h5a.63.63,0,0,1,.63.62v26A.63.63,0,0,1,45.62,36.25Z"/></g></g></svg>