<svg xmlns="http://www.w3.org/2000/svg" viewBox="0 0 53.25 53.25"><defs><style>.cls-1{fill:#262626;}</style></defs><g id="Слой_2" data-name="Слой 2"><g id="Layer_1" data-name="Layer 1"><path class="cls-1" d="M44.84,35.13H41.62a.63.63,0,0,1,0-1.25h3.22A7.15,7.15,0,0,0,46.2,19.71a.64.64,0,0,1-.45-.35.67.67,0,0,1,0-.57,6,6,0,0,0-9.2-7.35.63.63,0,0,1-.63.12.64.64,0,0,1-.41-.51,11.26,11.26,0,0,0-22.42,1.46,11.42,11.42,0,0,0,.2,2.07.62.62,0,0,1-.74.73,9.19,9.19,0,0,0-1.93-.21,9.39,9.39,0,0,0,0,18.78h1a.63.63,0,1,1,0,1.25h-1A10.64,10.64,0,1,1,12,13.94a11.68,11.68,0,0,1-.09-1.43A12.51,12.51,0,0,1,36.59,9.84a7.15,7.15,0,0,1,4-1.21,7.21,7.21,0,0,1,6.64,10,8.4,8.4,0,0,1-2.38,16.46Z"/><path class="cls-1" d="M41.62,29.25a.63.63,0,0,1-.62-.63v-5a1.38,1.38,0,0,0-1.38-1.37h-26a1.38,1.38,0,0,0-1.37,1.37v5a.63.63,0,1,1-1.25,0v-5A2.63,2.63,0,0,1,13.62,21h26a2.63,2.63,0,0,1,2.63,2.62v5A.63.63,0,0,1,41.62,29.25Z"/><circle class="cls-1" cx="15.63" cy="26.13" r="1"/><circle class="cls-1" cx="19.63" cy="26.13" r="1"/><path class="cls-1" d="M37.62,28.25a.63.63,0,0,1-.62-.63v-3a.63.63,0,0,1,1.25,0v3A.63.63,0,0,1,37.62,28.25Z"/><path class="cls-1" d="M33.62,28.25a.63.63,0,0,1-.62-.63v-3a.63.63,0,0,1,1.25,0v3A.63.63,0,0,1,33.62,28.25Z"/><path class="cls-1" d="M29.62,28.25a.63.63,0,0,1-.62-.63v-3a.63.63,0,0,1,1.25,0v3A.63.63,0,0,1,29.62,28.25Z"/><path class="cls-1" d="M41.62,38.25a.63.63,0,0,1-.62-.63v-5a1.38,1.38,0,0,0-1.38-1.37h-26a1.38,1.38,0,0,0-1.37,1.37v5a.63.63,0,1,1-1.25,0v-5A2.63,2.63,0,0,1,13.62,30h26a2.63,2.63,0,0,1,2.63,2.62v5A.63.63,0,0,1,41.62,38.25Z"/><circle class="cls-1" cx="15.63" cy="35.13" r="1"/><circle class="cls-1" cx="19.63" cy="35.13" r="1"/><path class="cls-1" d="M37.62,37.25a.63.63,0,0,1-.62-.63v-3a.63.63,0,0,1,1.25,0v3A.63.63,0,0,1,37.62,37.25Z"/><path class="cls-1" d="M33.62,37.25a.63.63,0,0,1-.62-.63v-3a.63.63,0,0,1,1.25,0v3A.63.63,0,0,1,33.62,37.25Z"/><path class="cls-1" d="M29.62,37.25a.63.63,0,0,1-.62-.63v-3a.63.63,0,0,1,1.25,0v3A.63.63,0,0,1,29.62,37.25Z"/><path class="cls-1" d="M39.62,49.25h-26A2.63,2.63,0,0,1,11,46.62v-5A2.63,2.63,0,0,1,13.62,39h26a2.63,2.63,0,0,1,2.63,2.62v5A2.63,2.63,0,0,1,39.62,49.25Zm-26-9a1.38,1.38,0,0,0-1.37,1.37v5A1.38,1.38,0,0,0,13.62,48h26A1.38,1.38,0,0,0,41,46.62v-5a1.38,1.38,0,0,0-1.38-1.37Z"/><circle class="cls-1" cx="15.63" cy="44.13" r="1"/><circle class="cls-1" cx="19.63" cy="44.13" r="1"/><path class="cls-1" d="M37.62,46.25a.63.63,0,0,1-.62-.63v-3a.63.63,0,0,1,1.25,0v3A.63.63,0,0,1,37.62,46.25Z"/><path class="cls-1" d="M33.62,46.25a.63.63,0,0,1-.62-.63v-3a.63.63,0,0,1,1.25,0v3A.63.63,0,0,1,33.62,46.25Z"/><path class="cls-1" d="M29.62,46.25a.63.63,0,0,1-.62-.63v-3a.63.63,0,0,1,1.25,0v3A.63.63,0,0,1,29.62,46.25Z"/><path class="cls-1" d="M26.62,53.25a.63.63,0,0,1-.62-.63v-4a.63.63,0,0,1,1.25,0v4A.63.63,0,0,1,26.62,53.25Z"/><path class="cls-1" d="M26.62,53.25h-11a.63.63,0,0,1,0-1.25h11a.63.63,0,1,1,0,1.25Z"/><path class="cls-1" d="M37.62,53.25h-11a.63.63,0,0,1,0-1.25h11a.63.63,0,1,1,0,1.25Z"/></g></g></svg>