<svg xmlns="http://www.w3.org/2000/svg" viewBox="0 0 43.25 53.25"><defs><style>.cls-1{fill:#262626;}</style></defs><g id="Слой_2" data-name="Слой 2"><g id="Layer_1" data-name="Layer 1"><path class="cls-1" d="M39.62,53.25h-36A3.63,3.63,0,0,1,0,49.62v-46A3.63,3.63,0,0,1,3.62,0h36a3.63,3.63,0,0,1,3.63,3.62v46A3.64,3.64,0,0,1,39.62,53.25Zm-36-52A2.38,2.38,0,0,0,1.25,3.62v46A2.38,2.38,0,0,0,3.62,52h36A2.39,2.39,0,0,0,42,49.62v-46a2.38,2.38,0,0,0-2.38-2.37Z"/><path class="cls-1" d="M37.12,18.25h-31A1.12,1.12,0,0,1,5,17.12v-11A1.12,1.12,0,0,1,6.12,5h31a1.12,1.12,0,0,1,1.13,1.12v11A1.12,1.12,0,0,1,37.12,18.25ZM6.25,17H37V6.25H6.25Z"/><path class="cls-1" d="M13.12,28.25h-7A1.12,1.12,0,0,1,5,27.12v-5A1.12,1.12,0,0,1,6.12,21h7a1.12,1.12,0,0,1,1.13,1.12v5A1.12,1.12,0,0,1,13.12,28.25ZM6.25,27H13V22.25H6.25Z"/><path class="cls-1" d="M25.12,28.25h-7A1.12,1.12,0,0,1,17,27.12v-5A1.12,1.12,0,0,1,18.12,21h7a1.12,1.12,0,0,1,1.13,1.12v5A1.12,1.12,0,0,1,25.12,28.25ZM18.25,27H25V22.25H18.25Z"/><path class="cls-1" d="M37.12,28.25h-7A1.12,1.12,0,0,1,29,27.12v-5A1.12,1.12,0,0,1,30.12,21h7a1.12,1.12,0,0,1,1.13,1.12v5A1.12,1.12,0,0,1,37.12,28.25ZM30.25,27H37V22.25H30.25Z"/><path class="cls-1" d="M13.12,38.25h-7A1.12,1.12,0,0,1,5,37.12v-5A1.12,1.12,0,0,1,6.12,31h7a1.12,1.12,0,0,1,1.13,1.12v5A1.12,1.12,0,0,1,13.12,38.25ZM6.25,37H13V32.25H6.25Z"/><path class="cls-1" d="M25.12,38.25h-7A1.12,1.12,0,0,1,17,37.12v-5A1.12,1.12,0,0,1,18.12,31h7a1.12,1.12,0,0,1,1.13,1.12v5A1.12,1.12,0,0,1,25.12,38.25ZM18.25,37H25V32.25H18.25Z"/><path class="cls-1" d="M13.12,48.25h-7A1.12,1.12,0,0,1,5,47.12v-5A1.12,1.12,0,0,1,6.12,41h7a1.12,1.12,0,0,1,1.13,1.12v5A1.12,1.12,0,0,1,13.12,48.25ZM6.25,47H13V42.25H6.25Z"/><path class="cls-1" d="M25.12,48.25h-7A1.12,1.12,0,0,1,17,47.12v-5A1.12,1.12,0,0,1,18.12,41h7a1.12,1.12,0,0,1,1.13,1.12v5A1.12,1.12,0,0,1,25.12,48.25ZM18.25,47H25V42.25H18.25Z"/><path class="cls-1" d="M37.12,48.25h-7A1.12,1.12,0,0,1,29,47.12v-15A1.12,1.12,0,0,1,30.12,31h7a1.12,1.12,0,0,1,1.13,1.12v15A1.12,1.12,0,0,1,37.12,48.25ZM30.25,47H37V32.25H30.25Z"/></g></g></svg>