<svg xmlns="http://www.w3.org/2000/svg" viewBox="0 0 53.25 53.25"><defs><style>.cls-1{fill:#262626;}</style></defs><g id="Слой_2" data-name="Слой 2"><g id="Layer_1" data-name="Layer 1"><path class="cls-1" d="M52.62,53.25H.62A.62.62,0,0,1,0,52.63V.63a.63.63,0,1,1,1.25,0V52H52.62a.63.63,0,1,1,0,1.25Z"/><path class="cls-1" d="M3.06,46.75H.62a.63.63,0,0,1,0-1.25H3.06a.63.63,0,1,1,0,1.25Z"/><path class="cls-1" d="M3.06,40.25H.62A.63.63,0,0,1,.62,39H3.06a.63.63,0,1,1,0,1.25Z"/><path class="cls-1" d="M3.06,33.75H.62a.63.63,0,0,1,0-1.25H3.06a.63.63,0,1,1,0,1.25Z"/><path class="cls-1" d="M3.06,27.25H.62A.63.63,0,0,1,.62,26H3.06a.63.63,0,1,1,0,1.25Z"/><path class="cls-1" d="M3.06,20.75H.62a.63.63,0,0,1,0-1.25H3.06a.63.63,0,1,1,0,1.25Z"/><path class="cls-1" d="M3.06,14.25H.62A.63.63,0,0,1,.62,13H3.06a.63.63,0,1,1,0,1.25Z"/><path class="cls-1" d="M3.06,7.75H.62a.63.63,0,0,1,0-1.25H3.06a.63.63,0,1,1,0,1.25Z"/><path class="cls-1" d="M52.62,50.25a.62.62,0,0,1-.62-.62V44.25H47v5.38a.63.63,0,0,1-1.25,0v-6a.63.63,0,0,1,.63-.63h6.28a.63.63,0,0,1,.63.63v6A.63.63,0,0,1,52.62,50.25Z"/><path class="cls-1" d="M46.34,50.25a.63.63,0,0,1-.63-.62V38.25h-5V49.63a.63.63,0,0,1-1.25,0v-12a.63.63,0,0,1,.62-.63h6.29a.63.63,0,0,1,.62.63v12A.62.62,0,0,1,46.34,50.25Z"/><path class="cls-1" d="M40.05,50.25a.62.62,0,0,1-.62-.62V30.25h-5V49.63a.63.63,0,0,1-1.25,0v-20a.63.63,0,0,1,.63-.63h6.28a.63.63,0,0,1,.63.63v20A.63.63,0,0,1,40.05,50.25Z"/><path class="cls-1" d="M33.77,50.25a.63.63,0,0,1-.63-.62V34.25h-5V49.63a.63.63,0,0,1-1.25,0v-16a.63.63,0,0,1,.62-.63h6.29a.63.63,0,0,1,.62.63v16A.62.62,0,0,1,33.77,50.25Z"/><path class="cls-1" d="M27.48,50.25a.62.62,0,0,1-.62-.62V24.25h-5V49.63a.63.63,0,0,1-1.25,0v-26A.63.63,0,0,1,21.2,23h6.28a.63.63,0,0,1,.63.63v26A.63.63,0,0,1,27.48,50.25Z"/><path class="cls-1" d="M21.2,50.25a.63.63,0,0,1-.63-.62V18.25h-5V49.63a.63.63,0,0,1-1.25,0v-32a.63.63,0,0,1,.62-.63H21.2a.63.63,0,0,1,.62.63v32A.62.62,0,0,1,21.2,50.25Z"/><path class="cls-1" d="M14.91,50.25a.62.62,0,0,1-.62-.62V7.25h-5V49.63a.63.63,0,0,1-1.25,0v-43A.63.63,0,0,1,8.62,6h6.29a.63.63,0,0,1,.63.63v43A.63.63,0,0,1,14.91,50.25Z"/><path class="cls-1" d="M52.62,33.25a.62.62,0,0,1-.44-.18l-32-32a.64.64,0,0,1,0-.89.64.64,0,0,1,.89,0l32,32a.64.64,0,0,1,0,.89A.63.63,0,0,1,52.62,33.25Z"/><path class="cls-1" d="M52.62,33.25h-5a.63.63,0,0,1,0-1.25H52V27.63a.63.63,0,1,1,1.25,0v5A.63.63,0,0,1,52.62,33.25Z"/></g></g></svg>