<svg xmlns="http://www.w3.org/2000/svg" viewBox="0 0 53.25 53.25"><defs><style>.cls-1{fill:#262626;}</style></defs><g id="Слой_2" data-name="Слой 2"><g id="Layer_1" data-name="Layer 1"><path class="cls-1" d="M50.62,43.25h-16a.63.63,0,0,1,0-1.25h16A1.38,1.38,0,0,0,52,40.62v-30a1.38,1.38,0,0,0-1.38-1.37h-24a.6.6,0,0,1-.55-.35L22.9,2.56a2.37,2.37,0,0,0-2.13-1.31H2.62A1.38,1.38,0,0,0,1.25,2.62v38A1.38,1.38,0,0,0,2.62,42h16a.63.63,0,1,1,0,1.25h-16A2.63,2.63,0,0,1,0,40.62v-38A2.63,2.63,0,0,1,2.62,0H20.77A3.6,3.6,0,0,1,24,2l3,6H50.62a2.63,2.63,0,0,1,2.63,2.62v30A2.63,2.63,0,0,1,50.62,43.25Z"/><path class="cls-1" d="M31.62,53.25h-10a.63.63,0,0,1-.62-.63V32.25H15.62a.61.61,0,0,1-.57-.39.62.62,0,0,1,.13-.68l11-11a.64.64,0,0,1,.89,0l11,11a.62.62,0,0,1,.13.68.61.61,0,0,1-.58.39H32.25V52.62A.63.63,0,0,1,31.62,53.25ZM22.25,52H31V31.62a.62.62,0,0,1,.62-.62h4.5l-9.5-9.49L17.13,31h4.49a.63.63,0,0,1,.63.62Z"/><path class="cls-1" d="M19.62,9.25h-13A.63.63,0,0,1,6.62,8h13a.63.63,0,1,1,0,1.25Z"/></g></g></svg>