<svg xmlns="http://www.w3.org/2000/svg" viewBox="0 0 53.25 53.25"><defs><style>.cls-1{fill:#262626;}</style></defs><g id="Слой_2" data-name="Слой 2"><g id="Layer_1" data-name="Layer 1"><path class="cls-1" d="M39.62,53.25a.6.6,0,0,1-.29-.08l-13-7a.62.62,0,0,1-.33-.55v-27a.62.62,0,0,1,.62-.62h26a.63.63,0,0,1,.63.62v27a.62.62,0,0,1-.33.55l-13,7A.61.61,0,0,1,39.62,53.25Zm-12.37-8,12.37,6.67L52,45.25v-26H27.25Z"/><path class="cls-1" d="M39.62,47.78a.59.59,0,0,1-.29-.07l-8-4.28a.63.63,0,0,1-.33-.55V23.62a.62.62,0,0,1,.62-.62h16a.63.63,0,0,1,.63.62V42.88a.63.63,0,0,1-.33.55l-8,4.28A.6.6,0,0,1,39.62,47.78ZM32.25,42.5l7.37,4,7.38-4V24.25H32.25Zm15.37.38h0Z"/><path class="cls-1" d="M32.62,53.25H.62A.63.63,0,0,1,0,52.62v-42a.67.67,0,0,1,.18-.44l10-10A.67.67,0,0,1,10.62,0h29a.63.63,0,0,1,.63.62v15a.63.63,0,1,1-1.25,0V1.25H10.88L1.25,10.88V52H32.62a.63.63,0,1,1,0,1.25Z"/><path class="cls-1" d="M10.62,11.25H.62a.61.61,0,0,1-.57-.39.62.62,0,0,1,.13-.68l10-10a.62.62,0,0,1,.68-.13.61.61,0,0,1,.39.57v10A.63.63,0,0,1,10.62,11.25ZM2.13,10H10V2.13Z"/></g></g></svg>