<svg xmlns="http://www.w3.org/2000/svg" viewBox="0 0 53.25 53.25"><defs><style>.cls-1{fill:#262626;}</style></defs><g id="Слой_2" data-name="Слой 2"><g id="Layer_1" data-name="Layer 1"><path class="cls-1" d="M48.62,53.25a.6.6,0,0,1-.55-.35l-4-8a.53.53,0,0,1-.07-.28v-38A.62.62,0,0,1,44.62,6h8a.63.63,0,0,1,.63.62v38a.53.53,0,0,1-.07.28l-4,8A.61.61,0,0,1,48.62,53.25Zm-3.37-8.77,3.37,6.75L52,44.48V7.25H45.25Z"/><path class="cls-1" d="M52.62,45.25h-8a.63.63,0,0,1,0-1.25h8a.63.63,0,1,1,0,1.25Z"/><path class="cls-1" d="M48.62,45.25a.63.63,0,0,1-.62-.63v-38a.63.63,0,0,1,1.25,0v38A.63.63,0,0,1,48.62,45.25Z"/><path class="cls-1" d="M52.62,7.25h-8A.63.63,0,0,1,44,6.62v-4A2.63,2.63,0,0,1,46.62,0h4a2.63,2.63,0,0,1,2.63,2.62v4A.63.63,0,0,1,52.62,7.25ZM45.25,6H52V2.62a1.38,1.38,0,0,0-1.38-1.37h-4a1.38,1.38,0,0,0-1.37,1.37Z"/><path class="cls-1" d="M25.62,9.25h-5a.63.63,0,0,1,0-1.25h5a.63.63,0,1,1,0,1.25Z"/><path class="cls-1" d="M17.62,9.25h-3a.63.63,0,0,1,0-1.25h3a.63.63,0,1,1,0,1.25Z"/><path class="cls-1" d="M25.62,12.25h-11a.63.63,0,0,1,0-1.25h11a.63.63,0,1,1,0,1.25Z"/><path class="cls-1" d="M33.62,23.25h-11a.63.63,0,0,1,0-1.25h11a.63.63,0,1,1,0,1.25Z"/><path class="cls-1" d="M19.62,23.25h-5a.63.63,0,0,1,0-1.25h5a.63.63,0,1,1,0,1.25Z"/><path class="cls-1" d="M33.62,20.25h-4a.63.63,0,0,1,0-1.25h4a.63.63,0,1,1,0,1.25Z"/><path class="cls-1" d="M26.62,20.25h-12a.63.63,0,0,1,0-1.25h12a.63.63,0,1,1,0,1.25Z"/><path class="cls-1" d="M28.62,34.25h-14a.63.63,0,0,1,0-1.25h14a.63.63,0,1,1,0,1.25Z"/><path class="cls-1" d="M33.62,31.25h-8a.63.63,0,0,1,0-1.25h8a.63.63,0,1,1,0,1.25Z"/><path class="cls-1" d="M22.62,31.25h-8a.63.63,0,0,1,0-1.25h8a.63.63,0,1,1,0,1.25Z"/><path class="cls-1" d="M33.62,42.25h-10a.63.63,0,0,1,0-1.25h10a.63.63,0,1,1,0,1.25Z"/><path class="cls-1" d="M20.62,42.25h-6a.63.63,0,0,1,0-1.25h6a.63.63,0,1,1,0,1.25Z"/><path class="cls-1" d="M24.62,45.25h-10a.63.63,0,0,1,0-1.25h10a.63.63,0,1,1,0,1.25Z"/><path class="cls-1" d="M39.62,53.25H.62A.63.63,0,0,1,0,52.62V.62A.62.62,0,0,1,.62,0h29a.67.67,0,0,1,.45.18l10,10a.67.67,0,0,1,.18.44v42A.63.63,0,0,1,39.62,53.25ZM1.25,52H39V10.88L29.37,1.25H1.25Z"/><path class="cls-1" d="M39.62,11.25h-10a.63.63,0,0,1-.62-.63V.62a.61.61,0,0,1,.39-.57.62.62,0,0,1,.68.13l10,10a.62.62,0,0,1,.13.68A.61.61,0,0,1,39.62,11.25ZM30.25,10h7.87L30.25,2.13Z"/><path class="cls-1" d="M7.39,12.75a.66.66,0,0,1-.45-.18L5,10.66a.63.63,0,1,1,.89-.89l1.47,1.47,3.55-3.56a.63.63,0,0,1,.89.89l-4,4A.62.62,0,0,1,7.39,12.75Z"/><path class="cls-1" d="M7.39,23.75a.66.66,0,0,1-.45-.18L5,21.66a.63.63,0,1,1,.89-.89l1.47,1.47,3.55-3.56a.63.63,0,0,1,.89.89l-4,4A.62.62,0,0,1,7.39,23.75Z"/><path class="cls-1" d="M7.39,34.75a.66.66,0,0,1-.45-.18L5,32.66a.63.63,0,1,1,.89-.89l1.47,1.47,3.55-3.56a.63.63,0,0,1,.89.89l-4,4A.62.62,0,0,1,7.39,34.75Z"/><path class="cls-1" d="M7.39,45.75a.66.66,0,0,1-.45-.18L5,43.66a.63.63,0,0,1,.89-.89l1.47,1.47,3.55-3.56a.63.63,0,0,1,.89.89l-4,4A.62.62,0,0,1,7.39,45.75Z"/></g></g></svg>