<svg xmlns="http://www.w3.org/2000/svg" viewBox="0 0 47.25 53.25"><defs><style>.cls-1{fill:#262626;}</style></defs><g id="Слой_2" data-name="Слой 2"><g id="Layer_1" data-name="Layer 1"><path class="cls-1" d="M15.65,53.25a.61.61,0,0,1-.39-.13.63.63,0,0,1-.24-.49V44.78a.38.38,0,0,0-.37-.38h-7A1.63,1.63,0,0,1,6,42.78V35.67a.37.37,0,0,0-.27-.36L.45,33.73a.66.66,0,0,1-.4-.35.65.65,0,0,1,0-.53L5.33,22.11a9.08,9.08,0,0,0,.91-3.31A20.57,20.57,0,0,1,31.39.52a20.21,20.21,0,0,1,15.86,20,21.93,21.93,0,0,1-2.1,9.65,34.53,34.53,0,0,0-3.43,15v1.43a.63.63,0,0,1-.48.61l-25.45,6ZM1.51,32.74l4.58,1.37a1.63,1.63,0,0,1,1.16,1.56v7.11a.38.38,0,0,0,.37.37h7a1.63,1.63,0,0,1,1.62,1.63v7.06l24.2-5.71V45.2A35.7,35.7,0,0,1,44,29.64a20.77,20.77,0,0,0,2-9.1A19,19,0,0,0,31.12,1.74,19.33,19.33,0,0,0,7.49,18.91a10.44,10.44,0,0,1-1,3.75ZM41.09,46.63h0Z"/><path class="cls-1" d="M26.62,34.25A13.63,13.63,0,1,1,40.25,20.63,13.64,13.64,0,0,1,26.62,34.25Zm0-26A12.38,12.38,0,1,0,39,20.63,12.39,12.39,0,0,0,26.62,8.25Z"/><path class="cls-1" d="M24,27.82a.62.62,0,0,1-.44-.18l-5.12-5.12a.63.63,0,1,1,.89-.88L24,26.32l9.8-9.8a.63.63,0,0,1,.88,0,.61.61,0,0,1,0,.88L24.46,27.64A.62.62,0,0,1,24,27.82Z"/></g></g></svg>