<svg xmlns="http://www.w3.org/2000/svg" viewBox="0 0 53.25 53.25"><defs><style>.cls-1{fill:#262626;}</style></defs><g id="Слой_2" data-name="Слой 2"><g id="Layer_1" data-name="Layer 1"><path class="cls-1" d="M48.62,53.25a4.59,4.59,0,0,1-3.27-1.36L33,39.43a.58.58,0,0,1-.18-.5.61.61,0,0,1,.27-.46A20.12,20.12,0,0,0,38.51,33a.67.67,0,0,1,.46-.27.65.65,0,0,1,.5.18L51.9,45.35a4.63,4.63,0,0,1-3.28,7.9ZM34.39,39.08,46.24,51A3.45,3.45,0,0,0,51,51a3.37,3.37,0,0,0,0-4.77h0L39.12,34.34A21.7,21.7,0,0,1,34.39,39.08Z"/><path class="cls-1" d="M21.62,43.25a21.62,21.62,0,1,1,12.16-3.74A21.65,21.65,0,0,1,21.62,43.25Zm0-42A20.38,20.38,0,1,0,33.08,38.47,20.39,20.39,0,0,0,42,21.62,20.4,20.4,0,0,0,21.62,1.25Z"/><path class="cls-1" d="M21.62,14.25h-8a.63.63,0,0,1-.62-.63v-8A.62.62,0,0,1,13.62,5h8a.63.63,0,0,1,.63.62v8A.63.63,0,0,1,21.62,14.25ZM14.25,13H21V6.25H14.25Z"/><path class="cls-1" d="M29.62,22.25h-8a.63.63,0,0,1-.62-.63v-8a.62.62,0,0,1,.62-.62h8a.63.63,0,0,1,.63.62v8A.63.63,0,0,1,29.62,22.25ZM22.25,21H29V14.25H22.25Z"/><path class="cls-1" d="M21.62,30.25h-8a.63.63,0,0,1-.62-.63v-8a.62.62,0,0,1,.62-.62h8a.63.63,0,0,1,.63.62v8A.63.63,0,0,1,21.62,30.25ZM14.25,29H21V22.25H14.25Z"/><path class="cls-1" d="M21.62,38.25h-8a.63.63,0,0,1-.62-.63v-8a.62.62,0,0,1,.62-.62h8a.63.63,0,0,1,.63.62v8A.63.63,0,0,1,21.62,38.25ZM14.25,37H21V30.25H14.25Z"/><path class="cls-1" d="M37.62,30.25h-8a.63.63,0,0,1-.62-.63v-8a.62.62,0,0,1,.62-.62h8a.63.63,0,0,1,.63.62v8A.63.63,0,0,1,37.62,30.25ZM30.25,29H37V22.25H30.25Z"/><path class="cls-1" d="M13.62,30.25h-8A.63.63,0,0,1,5,29.62v-8A.62.62,0,0,1,5.62,21h8a.63.63,0,0,1,.63.62v8A.63.63,0,0,1,13.62,30.25ZM6.25,29H13V22.25H6.25Z"/></g></g></svg>