<svg xmlns="http://www.w3.org/2000/svg" viewBox="0 0 39.25 53.25"><defs><style>.cls-1{fill:#262626;}</style></defs><g id="Слой_2" data-name="Слой 2"><g id="Layer_1" data-name="Layer 1"><path class="cls-1" d="M30.62,53.25a.57.57,0,0,1-.25-.06L19.62,48.31,8.88,53.19a.59.59,0,0,1-.59,0A.62.62,0,0,1,8,52.62V35.12a.63.63,0,1,1,1.25,0V51.65l10.12-4.59a.57.57,0,0,1,.51,0L30,51.65V35.11a.63.63,0,0,1,1.25,0V52.62a.62.62,0,0,1-.29.53A.59.59,0,0,1,30.62,53.25Z"/><path class="cls-1" d="M19.62,39.25A19.63,19.63,0,1,1,39.25,19.62,19.64,19.64,0,0,1,19.62,39.25Zm0-38A18.38,18.38,0,1,0,38,19.62,18.39,18.39,0,0,0,19.62,1.25Z"/><path class="cls-1" d="M19.62,48.25a.63.63,0,0,1-.62-.63v-9a.63.63,0,0,1,1.25,0v9A.63.63,0,0,1,19.62,48.25Z"/><path class="cls-1" d="M27.89,28.25H11.36A1.62,1.62,0,0,1,9.81,27.1l-3-9.73a1.62,1.62,0,0,1,2.41-1.85l4.79,3a.38.38,0,0,0,.54-.15l3.61-7.22a1.62,1.62,0,0,1,1.45-.9h0a1.64,1.64,0,0,1,1.46.91l3.57,7.21a.42.42,0,0,0,.24.2.4.4,0,0,0,.3,0l4.84-3a1.63,1.63,0,0,1,1.85.1,1.61,1.61,0,0,1,.56,1.76l-3,9.74A1.62,1.62,0,0,1,27.89,28.25ZM8.37,16.52a.38.38,0,0,0-.23.08A.35.35,0,0,0,8,17l3,9.74a.37.37,0,0,0,.35.26H27.89a.37.37,0,0,0,.35-.26l3-9.74a.36.36,0,0,0-.13-.41.34.34,0,0,0-.42,0l-4.84,3a1.65,1.65,0,0,1-1.3.18,1.67,1.67,0,0,1-1-.84L20,11.7a.38.38,0,0,0-.34-.21h0a.35.35,0,0,0-.33.21l-3.61,7.22a1.67,1.67,0,0,1-1,.84,1.61,1.61,0,0,1-1.3-.19l-4.79-3A.33.33,0,0,0,8.37,16.52Z"/></g></g></svg>