<svg xmlns="http://www.w3.org/2000/svg" viewBox="0 0 53.25 53.25"><defs><style>.cls-1{fill:#262626;}</style></defs><g id="Слой_2" data-name="Слой 2"><g id="Layer_1" data-name="Layer 1"><path class="cls-1" d="M12.62,27.25H.62A.63.63,0,0,1,.62,26h12a.63.63,0,1,1,0,1.25Z"/><path class="cls-1" d="M3.62,30.25a.64.64,0,0,1-.44-.18l-3-3a.64.64,0,0,1,0-.89l3-3a.63.63,0,0,1,.89.89L1.51,26.63l2.56,2.55a.63.63,0,0,1-.45,1.07Z"/><path class="cls-1" d="M52.62,27.25h-12a.63.63,0,0,1,0-1.25h12a.63.63,0,1,1,0,1.25Z"/><path class="cls-1" d="M49.62,30.25a.62.62,0,0,1-.44-.18.64.64,0,0,1,0-.89l2.56-2.55-2.56-2.56a.63.63,0,0,1,.89-.89l3,3a.64.64,0,0,1,0,.89l-3,3A.63.63,0,0,1,49.62,30.25Z"/><path class="cls-1" d="M26.62,53.25a.62.62,0,0,1-.62-.62v-12a.63.63,0,1,1,1.25,0v12A.63.63,0,0,1,26.62,53.25Z"/><path class="cls-1" d="M26.62,53.25a.62.62,0,0,1-.44-.18l-3-3a.63.63,0,0,1,.89-.89l2.55,2.56,2.56-2.56a.63.63,0,0,1,.89.89l-3,3A.63.63,0,0,1,26.62,53.25Z"/><path class="cls-1" d="M26.62,13.25a.62.62,0,0,1-.62-.62V.63a.63.63,0,1,1,1.25,0v12A.63.63,0,0,1,26.62,13.25Z"/><path class="cls-1" d="M29.62,4.25a.62.62,0,0,1-.44-.18L26.62,1.51,24.07,4.07a.63.63,0,0,1-.89-.89l3-3a.64.64,0,0,1,.89,0l3,3a.64.64,0,0,1,0,.89A.63.63,0,0,1,29.62,4.25Z"/><path class="cls-1" d="M16.62,17.25a.64.64,0,0,1-.44-.18L7.8,8.68a.62.62,0,0,1,.88-.88l8.39,8.38a.63.63,0,0,1-.45,1.07Z"/><path class="cls-1" d="M8.24,13.11a.63.63,0,0,1-.62-.63V8.24a.62.62,0,0,1,.62-.62h4.24a.63.63,0,1,1,0,1.25H8.87v3.61A.63.63,0,0,1,8.24,13.11Z"/><path class="cls-1" d="M36.62,17.25a.62.62,0,0,1-.44-.18.64.64,0,0,1,0-.89L44.57,7.8a.62.62,0,1,1,.88.88l-8.38,8.39A.63.63,0,0,1,36.62,17.25Z"/><path class="cls-1" d="M45,13.11a.63.63,0,0,1-.63-.63V8.87H40.77a.63.63,0,1,1,0-1.25H45a.62.62,0,0,1,.62.62v4.24A.63.63,0,0,1,45,13.11Z"/><path class="cls-1" d="M45,45.64a.63.63,0,0,1-.44-.19l-8.39-8.38a.63.63,0,0,1,.89-.89l8.38,8.39a.61.61,0,0,1,0,.88A.63.63,0,0,1,45,45.64Z"/><path class="cls-1" d="M45,45.64H40.77a.63.63,0,0,1-.63-.63.63.63,0,0,1,.63-.62h3.61V40.77a.63.63,0,0,1,.63-.63.63.63,0,0,1,.62.63V45A.63.63,0,0,1,45,45.64Z"/><path class="cls-1" d="M8.24,45.64a.63.63,0,0,1-.44-.19.61.61,0,0,1,0-.88l8.38-8.39a.63.63,0,0,1,.89.89L8.68,45.45A.63.63,0,0,1,8.24,45.64Z"/><path class="cls-1" d="M12.48,45.64H8.24A.63.63,0,0,1,7.62,45V40.77a.63.63,0,1,1,1.25,0v3.62h3.61a.63.63,0,0,1,.63.62A.63.63,0,0,1,12.48,45.64Z"/><path class="cls-1" d="M8.24,45.64a.63.63,0,0,1-.44-.19.61.61,0,0,1,0-.88L14,38.38a.62.62,0,0,1,.88.88L8.68,45.45A.63.63,0,0,1,8.24,45.64Z"/><path class="cls-1" d="M12.48,45.64H8.24A.63.63,0,0,1,7.62,45V40.77a.63.63,0,1,1,1.25,0v3.62h3.61a.63.63,0,0,1,.63.62A.63.63,0,0,1,12.48,45.64Z"/><path class="cls-1" d="M26.62,38.25A11.63,11.63,0,1,1,38.25,26.63,11.63,11.63,0,0,1,26.62,38.25Zm0-22A10.38,10.38,0,1,0,37,26.63,10.38,10.38,0,0,0,26.62,16.25Z"/></g></g></svg>