<svg xmlns="http://www.w3.org/2000/svg" viewBox="0 0 53.25 53.25"><defs><style>.cls-1{fill:#262626;}</style></defs><g id="Слой_2" data-name="Слой 2"><g id="Layer_1" data-name="Layer 1"><path class="cls-1" d="M38.62,22.25h-30a.63.63,0,0,1,0-1.25h30a.63.63,0,1,1,0,1.25Z"/><path class="cls-1" d="M41.62,25.25a3.63,3.63,0,1,1,3.63-3.63A3.63,3.63,0,0,1,41.62,25.25Zm0-6A2.38,2.38,0,1,0,44,21.62,2.38,2.38,0,0,0,41.62,19.25Z"/><path class="cls-1" d="M44.62,12.25h-17a.63.63,0,0,1,0-1.25h17a.63.63,0,1,1,0,1.25Z"/><path class="cls-1" d="M21.62,12.25h-13a.63.63,0,0,1,0-1.25h13a.63.63,0,1,1,0,1.25Z"/><path class="cls-1" d="M24.62,15.25a3.63,3.63,0,1,1,3.63-3.63A3.63,3.63,0,0,1,24.62,15.25Zm0-6A2.38,2.38,0,1,0,27,11.62,2.38,2.38,0,0,0,24.62,9.25Z"/><path class="cls-1" d="M44.62,32.25h-10a.63.63,0,0,1,0-1.25h10a.63.63,0,1,1,0,1.25Z"/><path class="cls-1" d="M28.62,32.25h-20a.63.63,0,0,1,0-1.25h20a.63.63,0,1,1,0,1.25Z"/><path class="cls-1" d="M31.62,35.25a3.63,3.63,0,1,1,3.63-3.63A3.63,3.63,0,0,1,31.62,35.25Zm0-6A2.38,2.38,0,1,0,34,31.62,2.38,2.38,0,0,0,31.62,29.25Z"/><path class="cls-1" d="M44.62,42.25h-24a.63.63,0,0,1,0-1.25h24a.63.63,0,1,1,0,1.25Z"/><path class="cls-1" d="M14.62,42.25h-6a.63.63,0,0,1,0-1.25h6a.63.63,0,1,1,0,1.25Z"/><path class="cls-1" d="M17.62,45.25a3.63,3.63,0,1,1,3.63-3.63A3.63,3.63,0,0,1,17.62,45.25Zm0-6A2.38,2.38,0,1,0,20,41.62,2.38,2.38,0,0,0,17.62,39.25Z"/><path class="cls-1" d="M50.62,53.25h-48A2.63,2.63,0,0,1,0,50.62v-48A2.63,2.63,0,0,1,2.62,0h48a2.63,2.63,0,0,1,2.63,2.62v48A2.63,2.63,0,0,1,50.62,53.25Zm-48-52A1.38,1.38,0,0,0,1.25,2.62v48A1.38,1.38,0,0,0,2.62,52h48A1.38,1.38,0,0,0,52,50.62v-48a1.38,1.38,0,0,0-1.38-1.37Z"/></g></g></svg>