<svg xmlns="http://www.w3.org/2000/svg" viewBox="0 0 41.25 53.25"><defs><style>.cls-1{fill:#262626;}</style></defs><g id="Слой_2" data-name="Слой 2"><g id="Layer_1" data-name="Layer 1"><path class="cls-1" d="M29.62,23.25h-18A11.63,11.63,0,0,1,11.62,0h18a11.63,11.63,0,1,1,0,23.25Zm-18-22a10.38,10.38,0,0,0,0,20.75h18a10.38,10.38,0,1,0,0-20.75Z"/><path class="cls-1" d="M29.62,53.25h-18a11.63,11.63,0,0,1,0-23.25h18a11.63,11.63,0,1,1,0,23.25Zm-18-22a10.38,10.38,0,0,0,0,20.75h18a10.38,10.38,0,1,0,0-20.75Z"/><path class="cls-1" d="M11.62,19.25a7.63,7.63,0,1,1,7.63-7.63A7.63,7.63,0,0,1,11.62,19.25Zm0-14A6.38,6.38,0,1,0,18,11.62,6.38,6.38,0,0,0,11.62,5.25Z"/><path class="cls-1" d="M29.62,49.25a7.63,7.63,0,1,1,7.63-7.63A7.63,7.63,0,0,1,29.62,49.25Zm0-14A6.38,6.38,0,1,0,36,41.62,6.38,6.38,0,0,0,29.62,35.25Z"/></g></g></svg>