<svg xmlns="http://www.w3.org/2000/svg" viewBox="0 0 53.25 53.25"><defs><style>.cls-1{fill:#262626;}</style></defs><g id="Слой_2" data-name="Слой 2"><g id="Layer_1" data-name="Layer 1"><path class="cls-1" d="M39,4.39a.56.56,0,0,1-.3-.08,25.46,25.46,0,0,0-12.1-3.06.63.63,0,0,1,0-1.25,26.59,26.59,0,0,1,12.7,3.22.61.61,0,0,1,.25.84A.62.62,0,0,1,39,4.39Z"/><path class="cls-1" d="M26.62,53.25a.63.63,0,0,1,0-1.25A25.37,25.37,0,0,0,43,7.22a.63.63,0,0,1,.81-1,26.63,26.63,0,0,1-17.16,47Z"/><path class="cls-1" d="M43.38,12.25a.63.63,0,0,1-.63-.63v-5A.63.63,0,0,1,43.38,6h5a.63.63,0,0,1,0,1.25H44v4.37A.63.63,0,0,1,43.38,12.25Z"/><path class="cls-1" d="M26.62,53.25A26.58,26.58,0,0,1,13.93,50a.62.62,0,1,1,.6-1.09A25.45,25.45,0,0,0,26.62,52a.63.63,0,1,1,0,1.25Z"/><path class="cls-1" d="M9.87,47.14a.62.62,0,0,1-.4-.15A26.63,26.63,0,0,1,26.62,0a.63.63,0,1,1,0,1.25A25.37,25.37,0,0,0,10.28,46a.63.63,0,0,1-.41,1.11Z"/><path class="cls-1" d="M9.88,47.25h-5a.63.63,0,1,1,0-1.25H9.25V41.62a.63.63,0,0,1,1.25,0v5A.63.63,0,0,1,9.88,47.25Z"/><path class="cls-1" d="M21.78,45.25a.69.69,0,0,1-.24,0l-4.46-1.84a.63.63,0,0,1-.36-.74l1-3.8a14.85,14.85,0,0,1-3.31-3.31l-3.8,1a.63.63,0,0,1-.74-.36L8.05,31.71a.63.63,0,0,1,.26-.78l3.41-2a14.76,14.76,0,0,1,0-4.69l-3.41-2a.63.63,0,0,1-.26-.78l1.84-4.46a.63.63,0,0,1,.74-.36l3.8,1a14.85,14.85,0,0,1,3.31-3.31l-1-3.8a.62.62,0,0,1,.37-.74l4.45-1.84a.63.63,0,0,1,.78.26l2,3.41a14.76,14.76,0,0,1,4.69,0l2-3.41a.63.63,0,0,1,.78-.26l4.46,1.84a.63.63,0,0,1,.36.74l-1,3.8a14.85,14.85,0,0,1,3.31,3.31l3.8-1a.63.63,0,0,1,.74.36l1.84,4.46a.63.63,0,0,1-.26.78l-3.41,2a14.76,14.76,0,0,1,0,4.69l3.41,2a.63.63,0,0,1,.26.78l-1.84,4.46a.63.63,0,0,1-.74.36l-3.8-1a14.85,14.85,0,0,1-3.31,3.31l1,3.8a.62.62,0,0,1-.37.74L31.71,45.2a.63.63,0,0,1-.78-.26l-2-3.41a14.76,14.76,0,0,1-4.69,0l-2,3.41A.61.61,0,0,1,21.78,45.25Zm7.51-5a.63.63,0,0,1,.54.31l1.91,3.32,3.44-1.43-1-3.69a.62.62,0,0,1,.25-.68,13.73,13.73,0,0,0,3.61-3.6.62.62,0,0,1,.68-.25l3.68,1,1.43-3.44-3.31-1.91a.61.61,0,0,1-.3-.65,13.67,13.67,0,0,0,0-5.1.62.62,0,0,1,.3-.66l3.32-1.91-1.43-3.44-3.69,1a.62.62,0,0,1-.68-.25,13.89,13.89,0,0,0-3.6-3.61.62.62,0,0,1-.25-.68l1-3.68L31.74,9.41l-1.9,3.31a.63.63,0,0,1-.66.3,13.67,13.67,0,0,0-5.1,0,.62.62,0,0,1-.66-.3L21.51,9.41l-3.44,1.43,1,3.69a.62.62,0,0,1-.25.68,13.73,13.73,0,0,0-3.61,3.6.62.62,0,0,1-.68.25l-3.68-1L9.41,21.51l3.31,1.91a.61.61,0,0,1,.3.65,13.67,13.67,0,0,0,0,5.1.62.62,0,0,1-.3.66L9.41,31.74l1.43,3.44,3.69-1a.62.62,0,0,1,.68.25,13.89,13.89,0,0,0,3.6,3.61.62.62,0,0,1,.25.68l-1,3.68,3.44,1.43,1.9-3.31a.63.63,0,0,1,.66-.3,13.67,13.67,0,0,0,5.1,0Zm-2.67-5.46a8.13,8.13,0,1,1,8.13-8.13A8.13,8.13,0,0,1,26.62,34.75Zm0-15a6.88,6.88,0,1,0,6.88,6.87A6.88,6.88,0,0,0,26.62,19.75Z"/></g></g></svg>