<svg xmlns="http://www.w3.org/2000/svg" viewBox="0 0 53.25 53.25"><defs><style>.cls-1{fill:#262626;}</style></defs><g id="Слой_2" data-name="Слой 2"><g id="Layer_1" data-name="Layer 1"><path class="cls-1" d="M52.62,53.25H.62A.63.63,0,0,1,0,52.62V.62a.63.63,0,0,1,1.25,0V52H52.62a.63.63,0,1,1,0,1.25Z"/><path class="cls-1" d="M46.62,53.25a.63.63,0,0,1-.62-.63v-42a.62.62,0,0,1,.62-.62h4.6l-7.6-8.44L36,10h4.59a.63.63,0,0,1,.63.62v42a.63.63,0,1,1-1.25,0V11.25H34.62a.64.64,0,0,1-.57-.37.63.63,0,0,1,.11-.67l9-10a.64.64,0,0,1,.93,0l9,10a.63.63,0,0,1,.11.67.64.64,0,0,1-.58.37H47.25V52.62A.63.63,0,0,1,46.62,53.25Z"/><path class="cls-1" d="M34.62,53.25a.63.63,0,0,1-.62-.63v-36a.63.63,0,0,1,1.25,0v36A.63.63,0,0,1,34.62,53.25Z"/><path class="cls-1" d="M28.62,53.25a.63.63,0,0,1-.62-.63v-30a.63.63,0,0,1,1.25,0v30A.63.63,0,0,1,28.62,53.25Z"/><path class="cls-1" d="M22.62,53.25a.63.63,0,0,1-.62-.63v-24a.63.63,0,0,1,1.25,0v24A.63.63,0,0,1,22.62,53.25Z"/><path class="cls-1" d="M16.62,53.25a.63.63,0,0,1-.62-.63v-18a.63.63,0,0,1,1.25,0v18A.63.63,0,0,1,16.62,53.25Z"/><path class="cls-1" d="M10.62,53.25a.63.63,0,0,1-.62-.63v-12a.63.63,0,0,1,1.25,0v12A.63.63,0,0,1,10.62,53.25Z"/><path class="cls-1" d="M2.62,35.25h-2A.63.63,0,0,1,.62,34h2a.63.63,0,1,1,0,1.25Z"/><path class="cls-1" d="M2.62,29.25h-2A.63.63,0,0,1,.62,28h2a.63.63,0,1,1,0,1.25Z"/><path class="cls-1" d="M2.62,47.25h-2A.63.63,0,0,1,.62,46h2a.63.63,0,1,1,0,1.25Z"/><path class="cls-1" d="M2.62,41.25h-2A.63.63,0,0,1,.62,40h2a.63.63,0,1,1,0,1.25Z"/><path class="cls-1" d="M2.62,11.25h-2A.63.63,0,0,1,.62,10h2a.63.63,0,1,1,0,1.25Z"/><path class="cls-1" d="M2.62,5.25h-2A.63.63,0,0,1,.62,4h2a.63.63,0,1,1,0,1.25Z"/><path class="cls-1" d="M2.62,23.25h-2A.63.63,0,0,1,.62,22h2a.63.63,0,1,1,0,1.25Z"/><path class="cls-1" d="M2.62,17.25h-2A.63.63,0,0,1,.62,16h2a.63.63,0,1,1,0,1.25Z"/></g></g></svg>