<svg xmlns="http://www.w3.org/2000/svg" viewBox="0 0 53.25 53.25"><defs><style>.cls-1{fill:#262626;}</style></defs><g id="Слой_2" data-name="Слой 2"><g id="Layer_1" data-name="Layer 1"><path class="cls-1" d="M26.62,16.25a.63.63,0,0,1-.62-.63v-4a.63.63,0,0,1,1.25,0v4A.63.63,0,0,1,26.62,16.25Z"/><path class="cls-1" d="M36.12,20.25a.63.63,0,0,1-.62-.63V16.25H17.75v3.37a.63.63,0,1,1-1.25,0v-4a.62.62,0,0,1,.62-.62h19a.63.63,0,0,1,.63.62v4A.63.63,0,0,1,36.12,20.25Z"/><path class="cls-1" d="M17.12,38.25a.63.63,0,0,1-.62-.63v-4a.63.63,0,0,1,1.25,0v4A.63.63,0,0,1,17.12,38.25Z"/><path class="cls-1" d="M26.62,42.25a.63.63,0,0,1-.62-.63V38.25H8.25v3.37a.63.63,0,1,1-1.25,0v-4A.62.62,0,0,1,7.62,37h19a.63.63,0,0,1,.63.62v4A.63.63,0,0,1,26.62,42.25Z"/><path class="cls-1" d="M45.62,42.25a.63.63,0,0,1-.62-.63V38.25H28.62a.63.63,0,0,1,0-1.25h17a.63.63,0,0,1,.63.62v4A.63.63,0,0,1,45.62,42.25Z"/><path class="cls-1" d="M33.62,9.25h-14A.63.63,0,0,1,19,8.62v-8A.62.62,0,0,1,19.62,0h14a.63.63,0,0,1,.63.62v8A.63.63,0,0,1,33.62,9.25ZM20.25,8H33V1.25H20.25Z"/><path class="cls-1" d="M33.62,53.25h-14a.63.63,0,0,1-.62-.63v-8a.62.62,0,0,1,.62-.62h14a.63.63,0,0,1,.63.62v8A.63.63,0,0,1,33.62,53.25ZM20.25,52H33V45.25H20.25Z"/><path class="cls-1" d="M14.62,53.25H.62A.63.63,0,0,1,0,52.62v-8A.62.62,0,0,1,.62,44h14a.63.63,0,0,1,.63.62v8A.63.63,0,0,1,14.62,53.25ZM1.25,52H14V45.25H1.25Z"/><path class="cls-1" d="M52.62,53.25h-14a.63.63,0,0,1-.62-.63v-8a.62.62,0,0,1,.62-.62h14a.63.63,0,0,1,.63.62v8A.63.63,0,0,1,52.62,53.25ZM39.25,52H52V45.25H39.25Z"/><path class="cls-1" d="M24.12,31.25h-14a.63.63,0,0,1-.62-.63v-8a.62.62,0,0,1,.62-.62h14a.63.63,0,0,1,.63.62v8A.63.63,0,0,1,24.12,31.25ZM10.75,30H23.5V23.25H10.75Z"/><path class="cls-1" d="M36.12,38.25a.63.63,0,0,1-.62-.63v-4a.63.63,0,0,1,1.25,0v4A.63.63,0,0,1,36.12,38.25Z"/><path class="cls-1" d="M43.12,31.25h-14a.63.63,0,0,1-.62-.63v-8a.62.62,0,0,1,.62-.62h14a.63.63,0,0,1,.63.62v8A.63.63,0,0,1,43.12,31.25ZM29.75,30H42.5V23.25H29.75Z"/></g></g></svg>