<svg xmlns="http://www.w3.org/2000/svg" viewBox="0 0 53.25 53.25"><defs><style>.cls-1{fill:#262626;}</style></defs><g id="Слой_2" data-name="Слой 2"><g id="Layer_1" data-name="Layer 1"><path class="cls-1" d="M22.62,16.25A2.63,2.63,0,0,1,20,13.62v-2a2.63,2.63,0,0,1,5.25,0v2A2.63,2.63,0,0,1,22.62,16.25Zm0-6a1.38,1.38,0,0,0-1.37,1.37v2a1.38,1.38,0,1,0,2.75,0v-2A1.38,1.38,0,0,0,22.62,10.25Z"/><path class="cls-1" d="M38.62,16.25A2.63,2.63,0,0,1,36,13.62v-2a2.63,2.63,0,0,1,5.25,0v2A2.63,2.63,0,0,1,38.62,16.25Zm0-6a1.38,1.38,0,0,0-1.37,1.37v2a1.38,1.38,0,1,0,2.75,0v-2A1.38,1.38,0,0,0,38.62,10.25Z"/><path class="cls-1" d="M28.62,16.25a.63.63,0,0,1-.62-.63v-6a.63.63,0,0,1,1.25,0v6A.63.63,0,0,1,28.62,16.25Z"/><path class="cls-1" d="M16.62,16.25a.63.63,0,0,1-.62-.63v-6a.63.63,0,0,1,1.25,0v6A.63.63,0,0,1,16.62,16.25Z"/><path class="cls-1" d="M32.62,16.25a.63.63,0,0,1-.62-.63v-6a.63.63,0,0,1,1.25,0v6A.63.63,0,0,1,32.62,16.25Z"/><path class="cls-1" d="M44.62,16.25a.63.63,0,0,1-.62-.63v-6a.63.63,0,0,1,1.25,0v6A.63.63,0,0,1,44.62,16.25Z"/><path class="cls-1" d="M10.62,16.25A2.63,2.63,0,0,1,8,13.62v-2a2.63,2.63,0,0,1,5.25,0v2A2.63,2.63,0,0,1,10.62,16.25Zm0-6a1.38,1.38,0,0,0-1.37,1.37v2a1.38,1.38,0,1,0,2.75,0v-2A1.38,1.38,0,0,0,10.62,10.25Z"/><path class="cls-1" d="M26.62,25.25A2.63,2.63,0,0,1,24,22.62v-2a2.63,2.63,0,0,1,5.25,0v2A2.63,2.63,0,0,1,26.62,25.25Zm0-6a1.38,1.38,0,0,0-1.37,1.37v2a1.38,1.38,0,1,0,2.75,0v-2A1.38,1.38,0,0,0,26.62,19.25Z"/><path class="cls-1" d="M34.62,25.25A2.63,2.63,0,0,1,32,22.62v-2a2.63,2.63,0,0,1,5.25,0v2A2.63,2.63,0,0,1,34.62,25.25Zm0-6a1.38,1.38,0,0,0-1.37,1.37v2a1.38,1.38,0,1,0,2.75,0v-2A1.38,1.38,0,0,0,34.62,19.25Z"/><path class="cls-1" d="M46.62,25.25A2.63,2.63,0,0,1,44,22.62v-2a2.63,2.63,0,0,1,5.25,0v2A2.63,2.63,0,0,1,46.62,25.25Zm0-6a1.38,1.38,0,0,0-1.37,1.37v2a1.38,1.38,0,1,0,2.75,0v-2A1.38,1.38,0,0,0,46.62,19.25Z"/><path class="cls-1" d="M40.62,25.25a.63.63,0,0,1-.62-.63v-6a.63.63,0,0,1,1.25,0v6A.63.63,0,0,1,40.62,25.25Z"/><path class="cls-1" d="M20.62,25.25a.63.63,0,0,1-.62-.63v-6a.63.63,0,0,1,1.25,0v6A.63.63,0,0,1,20.62,25.25Z"/><path class="cls-1" d="M14.62,25.25A2.63,2.63,0,0,1,12,22.62v-2a2.63,2.63,0,0,1,5.25,0v2A2.63,2.63,0,0,1,14.62,25.25Zm0-6a1.38,1.38,0,0,0-1.37,1.37v2a1.38,1.38,0,1,0,2.75,0v-2A1.38,1.38,0,0,0,14.62,19.25Z"/><path class="cls-1" d="M8.62,25.25A.63.63,0,0,1,8,24.62v-6a.63.63,0,0,1,1.25,0v6A.63.63,0,0,1,8.62,25.25Z"/><path class="cls-1" d="M4.62,25.25A.63.63,0,0,1,4,24.62v-6a.63.63,0,0,1,1.25,0v6A.63.63,0,0,1,4.62,25.25Z"/><path class="cls-1" d="M34.62,7.25A2.63,2.63,0,0,1,32,4.62v-2a2.63,2.63,0,0,1,5.25,0v2A2.63,2.63,0,0,1,34.62,7.25Zm0-6a1.38,1.38,0,0,0-1.37,1.37v2a1.38,1.38,0,1,0,2.75,0v-2A1.38,1.38,0,0,0,34.62,1.25Z"/><path class="cls-1" d="M28.62,7.25A.63.63,0,0,1,28,6.62v-6a.63.63,0,0,1,1.25,0v6A.63.63,0,0,1,28.62,7.25Z"/><path class="cls-1" d="M40.62,7.25A.63.63,0,0,1,40,6.62v-6a.63.63,0,0,1,1.25,0v6A.63.63,0,0,1,40.62,7.25Z"/><path class="cls-1" d="M22.62,7.25A2.63,2.63,0,0,1,20,4.62v-2a2.63,2.63,0,0,1,5.25,0v2A2.63,2.63,0,0,1,22.62,7.25Zm0-6a1.38,1.38,0,0,0-1.37,1.37v2a1.38,1.38,0,1,0,2.75,0v-2A1.38,1.38,0,0,0,22.62,1.25Z"/><path class="cls-1" d="M16.62,7.25A.63.63,0,0,1,16,6.62v-6a.63.63,0,0,1,1.25,0v6A.63.63,0,0,1,16.62,7.25Z"/><path class="cls-1" d="M12.62,7.25A.63.63,0,0,1,12,6.62v-6a.63.63,0,0,1,1.25,0v6A.63.63,0,0,1,12.62,7.25Z"/><path class="cls-1" d="M47.49,48.25h-.12a.64.64,0,0,1-.5-.74l3-15.25H3.38l3,15.25a.64.64,0,0,1-.5.74.63.63,0,0,1-.73-.49L2,31.75a.64.64,0,0,1,.13-.52A.62.62,0,0,1,2.62,31h48a.62.62,0,0,1,.49.23.64.64,0,0,1,.13.52l-3.14,16A.63.63,0,0,1,47.49,48.25Z"/><path class="cls-1" d="M52.62,32.25H.62A.63.63,0,0,1,0,31.62v-4A.62.62,0,0,1,.62,27h52a.63.63,0,0,1,.63.62v4A.63.63,0,0,1,52.62,32.25ZM1.25,31H52V28.25H1.25Z"/><path class="cls-1" d="M38.62,53.25a5.63,5.63,0,1,1,5.63-5.63A5.63,5.63,0,0,1,38.62,53.25Zm0-10A4.38,4.38,0,1,0,43,47.62,4.37,4.37,0,0,0,38.62,43.25Z"/><circle class="cls-1" cx="38.63" cy="47.63" r="1"/><path class="cls-1" d="M14.62,53.25a5.63,5.63,0,1,1,5.63-5.63A5.63,5.63,0,0,1,14.62,53.25Zm0-10A4.38,4.38,0,1,0,19,47.62,4.37,4.37,0,0,0,14.62,43.25Z"/><circle class="cls-1" cx="14.63" cy="47.63" r="1"/><path class="cls-1" d="M9.62,48.25h-7a.63.63,0,0,1,0-1.25h7a.63.63,0,1,1,0,1.25Z"/><path class="cls-1" d="M33.62,48.25h-14a.63.63,0,0,1,0-1.25h14a.63.63,0,1,1,0,1.25Z"/><path class="cls-1" d="M50.62,48.25h-7a.63.63,0,0,1,0-1.25h7a.63.63,0,1,1,0,1.25Z"/></g></g></svg>