<svg xmlns="http://www.w3.org/2000/svg" viewBox="0 0 49.25 53.25"><defs><style>.cls-1{fill:#262626;}</style></defs><g id="Слой_2" data-name="Слой 2"><g id="Layer_1" data-name="Layer 1"><path class="cls-1" d="M27.2,22.25A.69.69,0,0,1,27,22.2a.61.61,0,0,1-.38-.58V.62A.62.62,0,0,1,27.2,0,21.48,21.48,0,0,1,42.49,6.33a.63.63,0,0,1,.18.45.62.62,0,0,1-.18.44L27.64,22.07A.62.62,0,0,1,27.2,22.25Zm.63-21V20.12L41.16,6.78A20.21,20.21,0,0,0,27.83,1.26Z"/><path class="cls-1" d="M6.78,47.1a.67.67,0,0,1-.45-.18A21.63,21.63,0,0,1,21.62,10a.63.63,0,0,1,.63.62v21a.67.67,0,0,1-.18.45L7.22,46.92A.67.67,0,0,1,6.78,47.1ZM21,11.26A20.37,20.37,0,0,0,6.78,45.58L21,31.37Z"/><path class="cls-1" d="M42.47,44.1a.67.67,0,0,1-.44-.18L27.18,29.07a.64.64,0,0,1,0-.89L42,13.33a.67.67,0,0,1,.44-.18h0a.67.67,0,0,1,.45.18,21.64,21.64,0,0,1,0,30.59A.67.67,0,0,1,42.47,44.1Zm-14-15.48,14,14a20.37,20.37,0,0,0,0-27.91Z"/><path class="cls-1" d="M21.62,53.25A21.52,21.52,0,0,1,6.33,46.92a.64.64,0,0,1,0-.89L21.18,31.18a.64.64,0,0,1,.89,0L36.92,46a.64.64,0,0,1,0,.89A21.52,21.52,0,0,1,21.62,53.25ZM7.67,46.47a20.37,20.37,0,0,0,27.91,0l-14-14Z"/></g></g></svg>