<svg xmlns="http://www.w3.org/2000/svg" viewBox="0 0 53.25 51.25"><defs><style>.cls-1{fill:#262626;}</style></defs><g id="Слой_2" data-name="Слой 2"><g id="Layer_1" data-name="Layer 1"><path class="cls-1" d="M52.23,22.38h0l-4.1-1-.06-.14,2.18-3.63A1.35,1.35,0,0,0,50,16L47.3,13.21A1.35,1.35,0,0,0,45.66,13L42,15.21l-.07-.09-1-4.1a1.35,1.35,0,0,0-1.31-1H35.69a1.35,1.35,0,0,0-1.31,1l-1,4.1-.15.06L29.59,13a1.35,1.35,0,0,0-1.64.21L25.21,16A1.35,1.35,0,0,0,25,17.59l2.18,3.63-.06.14-4.1,1a1.35,1.35,0,0,0-1,1.31v3.87a1.35,1.35,0,0,0,1,1.31l4.1,1,.06.15L25,33.66a1.35,1.35,0,0,0,.21,1.64L28,38a1.35,1.35,0,0,0,1.64.21l3.71-2.2.06.08,1,4.1a1.35,1.35,0,0,0,1.31,1h3.87a1.35,1.35,0,0,0,1.31-1l1-4.1.15-.06,3.62,2.18A1.35,1.35,0,0,0,47.3,38L50,35.3a1.35,1.35,0,0,0,.21-1.64L48,30l.09-.07,4.1-1a1.35,1.35,0,0,0,1-1.31V23.69A1.35,1.35,0,0,0,52.23,22.38ZM52,27.56a.11.11,0,0,1-.07.1l-4.1,1a1.33,1.33,0,0,0-.92.79A1.36,1.36,0,0,0,47,30.68l2.17,3.62a.09.09,0,0,1,0,.12l-2.74,2.74a.09.09,0,0,1-.12,0L42.68,35a1.35,1.35,0,0,0-2,.83l-1,4.1a.11.11,0,0,1-.1.07H35.69a.11.11,0,0,1-.1-.07l-1-4.1a1.35,1.35,0,0,0-2-.83L29,37.17a.09.09,0,0,1-.12,0l-2.74-2.74a.09.09,0,0,1,0-.12l2.17-3.62a1.36,1.36,0,0,0,.09-1.21,1.31,1.31,0,0,0-.92-.79l-4.1-1a.11.11,0,0,1-.07-.1V23.69a.11.11,0,0,1,.07-.1l4.1-1a1.35,1.35,0,0,0,.83-2L26.08,17a.09.09,0,0,1,0-.12l2.74-2.74a.09.09,0,0,1,.12,0l3.62,2.17a1.35,1.35,0,0,0,2-.83l1-4.1a.11.11,0,0,1,.1-.07h3.87a.11.11,0,0,1,.1.07l1,4.1a1.35,1.35,0,0,0,2,.83l3.62-2.17a.09.09,0,0,1,.12,0l2.74,2.74a.09.09,0,0,1,0,.12L47,20.57a1.35,1.35,0,0,0,.83,2l4.1,1a.11.11,0,0,1,.07.1Z"/><path class="cls-1" d="M37.62,30.94a5.32,5.32,0,1,1,5.32-5.32A5.33,5.33,0,0,1,37.62,30.94Zm0-9.38a4.07,4.07,0,1,0,4.07,4.06A4.06,4.06,0,0,0,37.62,21.56Z"/><path class="cls-1" d="M2.62,19.25A.63.63,0,0,1,2,18.62v-4a.63.63,0,0,1,1.25,0v4A.63.63,0,0,1,2.62,19.25Z"/><path class="cls-1" d="M2.62,37.25A.63.63,0,0,1,2,36.62v-4a.63.63,0,0,1,1.25,0v4A.63.63,0,0,1,2.62,37.25Z"/><path class="cls-1" d="M22.62,15.25H.62A.63.63,0,0,1,0,14.62V.62A.62.62,0,0,1,.62,0h50a.63.63,0,0,1,.63.62v12a.63.63,0,1,1-1.25,0V1.25H1.25V14H22.62a.63.63,0,1,1,0,1.25Z"/><path class="cls-1" d="M20.62,33.25H.62A.63.63,0,0,1,0,32.62v-14A.62.62,0,0,1,.62,18h20a.63.63,0,1,1,0,1.25H1.25V32H20.62a.63.63,0,1,1,0,1.25Z"/><path class="cls-1" d="M50.62,51.25H.62A.63.63,0,0,1,0,50.62v-14A.62.62,0,0,1,.62,36h22a.63.63,0,1,1,0,1.25H1.25V50H50V38.62a.63.63,0,0,1,1.25,0v12A.63.63,0,0,1,50.62,51.25Z"/><path class="cls-1" d="M6.62,11.25A2.63,2.63,0,0,1,4,8.62v-2a2.63,2.63,0,0,1,5.25,0v2A2.63,2.63,0,0,1,6.62,11.25Zm0-6A1.38,1.38,0,0,0,5.25,6.62v2A1.38,1.38,0,1,0,8,8.62v-2A1.38,1.38,0,0,0,6.62,5.25Z"/><path class="cls-1" d="M14.62,11.25A2.63,2.63,0,0,1,12,8.62v-2a2.63,2.63,0,0,1,5.25,0v2A2.63,2.63,0,0,1,14.62,11.25Zm0-6a1.38,1.38,0,0,0-1.37,1.37v2a1.38,1.38,0,1,0,2.75,0v-2A1.38,1.38,0,0,0,14.62,5.25Z"/><path class="cls-1" d="M22.62,11.25A2.63,2.63,0,0,1,20,8.62v-2a2.63,2.63,0,0,1,5.25,0v2A2.63,2.63,0,0,1,22.62,11.25Zm0-6a1.38,1.38,0,0,0-1.37,1.37v2a1.38,1.38,0,1,0,2.75,0v-2A1.38,1.38,0,0,0,22.62,5.25Z"/><path class="cls-1" d="M6.62,47.25A2.63,2.63,0,0,1,4,44.62v-2a2.63,2.63,0,0,1,5.25,0v2A2.63,2.63,0,0,1,6.62,47.25Zm0-6a1.38,1.38,0,0,0-1.37,1.37v2a1.38,1.38,0,1,0,2.75,0v-2A1.38,1.38,0,0,0,6.62,41.25Z"/><path class="cls-1" d="M14.62,47.25A2.63,2.63,0,0,1,12,44.62v-2a2.63,2.63,0,0,1,5.25,0v2A2.63,2.63,0,0,1,14.62,47.25Zm0-6a1.38,1.38,0,0,0-1.37,1.37v2a1.38,1.38,0,1,0,2.75,0v-2A1.38,1.38,0,0,0,14.62,41.25Z"/><path class="cls-1" d="M22.62,47.25A2.63,2.63,0,0,1,20,44.62v-2a2.63,2.63,0,0,1,5.25,0v2A2.63,2.63,0,0,1,22.62,47.25Zm0-6a1.38,1.38,0,0,0-1.37,1.37v2a1.38,1.38,0,1,0,2.75,0v-2A1.38,1.38,0,0,0,22.62,41.25Z"/><path class="cls-1" d="M6.62,29.25A2.63,2.63,0,0,1,4,26.62v-2a2.63,2.63,0,0,1,5.25,0v2A2.63,2.63,0,0,1,6.62,29.25Zm0-6a1.38,1.38,0,0,0-1.37,1.37v2a1.38,1.38,0,1,0,2.75,0v-2A1.38,1.38,0,0,0,6.62,23.25Z"/><path class="cls-1" d="M14.62,29.25A2.63,2.63,0,0,1,12,26.62v-2a2.63,2.63,0,0,1,5.25,0v2A2.63,2.63,0,0,1,14.62,29.25Zm0-6a1.38,1.38,0,0,0-1.37,1.37v2a1.38,1.38,0,1,0,2.75,0v-2A1.38,1.38,0,0,0,14.62,23.25Z"/></g></g></svg>