<svg xmlns="http://www.w3.org/2000/svg" viewBox="0 0 41.25 53.25"><defs><style>.cls-1{fill:#262626;}</style></defs><g id="Слой_2" data-name="Слой 2"><g id="Layer_1" data-name="Layer 1"><path class="cls-1" d="M40.62,49.25h-12a.63.63,0,0,1,0-1.25H40V10.88L30.37,1.25H1.25V48H12.62a.63.63,0,1,1,0,1.25H.62A.63.63,0,0,1,0,48.62V.62A.62.62,0,0,1,.62,0h30a.67.67,0,0,1,.45.18l10,10a.67.67,0,0,1,.18.44v38A.63.63,0,0,1,40.62,49.25Z"/><path class="cls-1" d="M40.62,11.25h-10a.63.63,0,0,1-.62-.63V.62a.61.61,0,0,1,.39-.57.62.62,0,0,1,.68.13l10,10a.62.62,0,0,1,.13.68A.61.61,0,0,1,40.62,11.25ZM31.25,10h7.87L31.25,2.13Z"/><path class="cls-1" d="M20.62,53.25a.62.62,0,0,1-.44-.18l-11-11a.62.62,0,0,1-.13-.68A.61.61,0,0,1,9.62,41H15V21.62a.62.62,0,0,1,.62-.62h10a.63.63,0,0,1,.63.62V41h5.37a.61.61,0,0,1,.58.39.62.62,0,0,1-.13.68l-11,11A.63.63,0,0,1,20.62,53.25Zm-9.49-11,9.49,9.49,9.5-9.49h-4.5a.63.63,0,0,1-.62-.63V22.25H16.25V41.62a.63.63,0,0,1-.63.63Z"/></g></g></svg>