<svg xmlns="http://www.w3.org/2000/svg" viewBox="0 0 53.25 53.25"><defs><style>.cls-1{fill:#262626;}</style></defs><g id="Слой_2" data-name="Слой 2"><g id="Layer_1" data-name="Layer 1"><path class="cls-1" d="M21.62,53.25h-7a.63.63,0,0,1-.62-.63v-24a.62.62,0,0,1,.62-.62h7a.63.63,0,0,1,.63.62v24A.63.63,0,0,1,21.62,53.25ZM15.25,52H21V29.25H15.25Z"/><path class="cls-1" d="M14.62,53.25h-7A.63.63,0,0,1,7,52.62v-28A.62.62,0,0,1,7.62,24h7a.63.63,0,0,1,.63.62v28A.63.63,0,0,1,14.62,53.25ZM8.25,52H14V25.25H8.25Z"/><path class="cls-1" d="M7.62,53.25h-7A.63.63,0,0,1,0,52.62v-16A.62.62,0,0,1,.62,36h7a.63.63,0,0,1,.63.62v16A.63.63,0,0,1,7.62,53.25ZM1.25,52H7V37.25H1.25Z"/><path class="cls-1" d="M28.62,53.25h-7a.63.63,0,0,1-.62-.63v-36a.62.62,0,0,1,.62-.62h7a.63.63,0,1,1,0,1.25H22.25V52h6.37a.63.63,0,1,1,0,1.25Z"/><path class="cls-1" d="M35.62,53.25h-7a.63.63,0,0,1-.62-.63v-10a.63.63,0,0,1,1.25,0V52h6.37a.63.63,0,1,1,0,1.25Z"/><path class="cls-1" d="M28.62,21.25a.63.63,0,0,1-.62-.63v-12A.62.62,0,0,1,28.62,8h7a.63.63,0,1,1,0,1.25H29.25V20.62A.63.63,0,0,1,28.62,21.25Z"/><path class="cls-1" d="M42.62,53.25h-7a.63.63,0,0,1-.62-.63v-6a.63.63,0,0,1,1.25,0V52H42V46.62a.63.63,0,0,1,1.25,0v6A.63.63,0,0,1,42.62,53.25Z"/><path class="cls-1" d="M42.62,17.25a.63.63,0,0,1-.62-.63V1.25H36.25V16.62a.63.63,0,1,1-1.25,0V.62A.62.62,0,0,1,35.62,0h7a.63.63,0,0,1,.63.62v16A.63.63,0,0,1,42.62,17.25Z"/><path class="cls-1" d="M39.62,45.25A13.63,13.63,0,1,1,53.25,31.62,13.64,13.64,0,0,1,39.62,45.25Zm0-26A12.38,12.38,0,1,0,52,31.62,12.39,12.39,0,0,0,39.62,19.25Z"/><path class="cls-1" d="M37,38.82h0a.62.62,0,0,1-.44-.18l-5.12-5.12a.63.63,0,1,1,.89-.88L37,37.31l9.8-9.79a.62.62,0,1,1,.88.88L37.46,38.64A.59.59,0,0,1,37,38.82Z"/></g></g></svg>