<svg xmlns="http://www.w3.org/2000/svg" viewBox="0 0 53.25 53.25"><defs><style>.cls-1{fill:#262626;}</style></defs><g id="Слой_2" data-name="Слой 2"><g id="Layer_1" data-name="Layer 1"><path class="cls-1" d="M52.62,53.25H.62A.63.63,0,0,1,0,52.62V.62a.63.63,0,0,1,1.25,0V52H52.62a.63.63,0,1,1,0,1.25Z"/><path class="cls-1" d="M31.62,53.25h-7a.63.63,0,0,1-.62-.63v-19a.62.62,0,0,1,.62-.62h7a.63.63,0,0,1,.63.62v19A.63.63,0,0,1,31.62,53.25ZM25.25,52H31V34.25H25.25Z"/><path class="cls-1" d="M24.62,53.25h-7a.63.63,0,0,1-.62-.63v-24a.62.62,0,0,1,.62-.62h7a.63.63,0,0,1,.63.62v24A.63.63,0,0,1,24.62,53.25ZM18.25,52H24V29.25H18.25Z"/><path class="cls-1" d="M17.62,53.25h-7a.63.63,0,0,1-.62-.63v-13a.62.62,0,0,1,.62-.62h7a.63.63,0,0,1,.63.62v13A.63.63,0,0,1,17.62,53.25ZM11.25,52H17V40.25H11.25Z"/><path class="cls-1" d="M38.62,53.25h-7a.63.63,0,0,1-.62-.63v-29a.62.62,0,0,1,.62-.62h7a.63.63,0,0,1,.63.62v29A.63.63,0,0,1,38.62,53.25ZM32.25,52H38V24.25H32.25Z"/><path class="cls-1" d="M45.62,53.25h-7a.63.63,0,0,1-.62-.63v-23a.62.62,0,0,1,.62-.62h7a.63.63,0,0,1,.63.62v23A.63.63,0,0,1,45.62,53.25ZM39.25,52H45V30.25H39.25Z"/><path class="cls-1" d="M52.62,53.25h-7a.63.63,0,0,1-.62-.63v-38a.62.62,0,0,1,.62-.62h7a.63.63,0,0,1,.63.62v38A.63.63,0,0,1,52.62,53.25ZM46.25,52H52V15.25H46.25Z"/><path class="cls-1" d="M2.62,35.25h-2A.63.63,0,0,1,.62,34h2a.63.63,0,1,1,0,1.25Z"/><path class="cls-1" d="M2.62,29.25h-2A.63.63,0,0,1,.62,28h2a.63.63,0,1,1,0,1.25Z"/><path class="cls-1" d="M2.62,47.25h-2A.63.63,0,0,1,.62,46h2a.63.63,0,1,1,0,1.25Z"/><path class="cls-1" d="M2.62,41.25h-2A.63.63,0,0,1,.62,40h2a.63.63,0,1,1,0,1.25Z"/><path class="cls-1" d="M2.62,11.25h-2A.63.63,0,0,1,.62,10h2a.63.63,0,1,1,0,1.25Z"/><path class="cls-1" d="M2.62,5.25h-2A.63.63,0,0,1,.62,4h2a.63.63,0,1,1,0,1.25Z"/><path class="cls-1" d="M2.62,23.25h-2A.63.63,0,0,1,.62,22h2a.63.63,0,1,1,0,1.25Z"/><path class="cls-1" d="M2.62,17.25h-2A.63.63,0,0,1,.62,16h2a.63.63,0,1,1,0,1.25Z"/></g></g></svg>