<svg xmlns="http://www.w3.org/2000/svg" viewBox="0 0 53.25 45.25"><defs><style>.cls-1{fill:#262626;}</style></defs><g id="Слой_2" data-name="Слой 2"><g id="Layer_1" data-name="Layer 1"><path class="cls-1" d="M26.62,42.25A19.63,19.63,0,1,1,46.25,22.62,19.64,19.64,0,0,1,26.62,42.25Zm0-38A18.38,18.38,0,1,0,45,22.62,18.39,18.39,0,0,0,26.62,4.25Z"/><path class="cls-1" d="M13.19,36.69a.63.63,0,0,1-.44-.19.61.61,0,0,1,0-.88L39.62,8.75a.62.62,0,1,1,.88.88L13.63,36.5A.63.63,0,0,1,13.19,36.69Z"/><path class="cls-1" d="M40.06,36.69a.63.63,0,0,1-.44-.19L26.18,23.07a.67.67,0,0,1-.18-.45v-19a.63.63,0,0,1,1.25,0V22.37L40.5,35.62a.61.61,0,0,1,0,.88A.63.63,0,0,1,40.06,36.69Z"/><path class="cls-1" d="M15.62,13.25a.62.62,0,0,1-.44-.18L10.37,8.25H.62A.63.63,0,0,1,.62,7h10a.67.67,0,0,1,.45.18l5,5a.64.64,0,0,1,0,.89A.63.63,0,0,1,15.62,13.25Z"/><path class="cls-1" d="M16.62,45.25h-10a.63.63,0,0,1,0-1.25h9.75l7.81-7.82a.63.63,0,0,1,.89.89l-8,8A.67.67,0,0,1,16.62,45.25Z"/><path class="cls-1" d="M52.62,34.25h-6a.67.67,0,0,1-.44-.18l-6-6a.63.63,0,0,1,.89-.89L46.88,33h5.74a.63.63,0,1,1,0,1.25Z"/><path class="cls-1" d="M32.62,9.25a.62.62,0,0,1-.44-.18.64.64,0,0,1,0-.89l8-8A.67.67,0,0,1,40.62,0h12a.63.63,0,1,1,0,1.25H40.88L33.07,9.07A.63.63,0,0,1,32.62,9.25Z"/></g></g></svg>