<svg xmlns="http://www.w3.org/2000/svg" viewBox="0 0 53.25 53.25"><defs><style>.cls-1{fill:#262626;}</style></defs><g id="Слой_2" data-name="Слой 2"><g id="Layer_1" data-name="Layer 1"><path class="cls-1" d="M38.62,53.25a.58.58,0,0,1-.33-.1l-14-9a.62.62,0,0,1-.29-.53v-25a.62.62,0,0,1,.62-.62h28a.63.63,0,0,1,.63.62v25a.62.62,0,0,1-.29.53l-14,9A.59.59,0,0,1,38.62,53.25Zm-13.37-10,13.37,8.6L52,43.28v-24H25.25Zm13.37,2.84a.67.67,0,0,1-.33-.1l-8-5.14a.64.64,0,0,1-.29-.53V24.62a.62.62,0,0,1,.62-.62h16a.63.63,0,0,1,.63.62V40.35a.64.64,0,0,1-.29.53L39,46A.67.67,0,0,1,38.62,46.12ZM31.25,40l7.37,4.74L46,40V25.25H31.25Zm15.37.34h0Z"/><path class="cls-1" d="M32.62,53.25h-31A1.63,1.63,0,0,1,0,51.62v-50A1.63,1.63,0,0,1,1.62,0h44a1.63,1.63,0,0,1,1.63,1.62v14a.63.63,0,1,1-1.25,0v-14a.38.38,0,0,0-.38-.37h-44a.38.38,0,0,0-.37.37v50a.38.38,0,0,0,.37.38h31a.63.63,0,1,1,0,1.25Z"/><path class="cls-1" d="M43.12,9.25h-39A.63.63,0,0,1,4.12,8h39a.63.63,0,1,1,0,1.25Z"/><circle class="cls-1" cx="4.63" cy="4.63" r="1"/><circle class="cls-1" cx="8.63" cy="4.63" r="1"/><circle class="cls-1" cx="12.63" cy="4.63" r="1"/></g></g></svg>