<svg xmlns="http://www.w3.org/2000/svg" viewBox="0 0 53.25 53.25"><defs><style>.cls-1{fill:#262626;}</style></defs><g id="Слой_2" data-name="Слой 2"><g id="Layer_1" data-name="Layer 1"><path class="cls-1" d="M43.62,53.25h-34a.63.63,0,0,1,0-1.25h34a.63.63,0,1,1,0,1.25Z"/><path class="cls-1" d="M26.62,16.25a4.63,4.63,0,1,1,4.63-4.63A4.63,4.63,0,0,1,26.62,16.25Zm0-8A3.38,3.38,0,1,0,30,11.62,3.37,3.37,0,0,0,26.62,8.25Z"/><path class="cls-1" d="M18.62,32.25H.62A.63.63,0,0,1,.1,32a.59.59,0,0,1,0-.59l9-20a.64.64,0,0,1,1.13,0l9,20a.59.59,0,0,1,0,.59A.63.63,0,0,1,18.62,32.25ZM1.59,31H17.66l-8-17.85Z"/><path class="cls-1" d="M39.62,53.25h-26a.63.63,0,0,1-.62-.63v-4a.62.62,0,0,1,.62-.62h26a.63.63,0,0,1,.63.62v4A.63.63,0,0,1,39.62,53.25ZM14.25,52H39V49.25H14.25Z"/><path class="cls-1" d="M10.62,40.25h-2A8.64,8.64,0,0,1,0,31.62.62.62,0,0,1,.62,31h18a.63.63,0,0,1,.63.62A8.64,8.64,0,0,1,10.62,40.25Zm-9.34-8A7.37,7.37,0,0,0,8.62,39h2A7.37,7.37,0,0,0,18,32.25Z"/><path class="cls-1" d="M52.62,32.25h-18A.61.61,0,0,1,34.1,32a.65.65,0,0,1-.05-.59l9-20a.66.66,0,0,1,1.15,0l9,20a.65.65,0,0,1-.05.59A.62.62,0,0,1,52.62,32.25ZM35.59,31H51.66l-8-17.85Z"/><path class="cls-1" d="M44.62,40.25h-2A8.64,8.64,0,0,1,34,31.62a.62.62,0,0,1,.62-.62h18a.63.63,0,0,1,.63.62A8.64,8.64,0,0,1,44.62,40.25Zm-9.34-8A7.37,7.37,0,0,0,42.62,39h2A7.37,7.37,0,0,0,52,32.25Z"/><path class="cls-1" d="M28.62,8.67A.63.63,0,0,1,28,8V2.62a1.38,1.38,0,0,0-2.75,0V8A.63.63,0,1,1,24,8V2.62a2.63,2.63,0,0,1,5.25,0V8A.63.63,0,0,1,28.62,8.67Z"/><path class="cls-1" d="M28.62,49.25h-4a.63.63,0,0,1-.62-.63V15.21a.63.63,0,1,1,1.25,0V48H28V15.21a.63.63,0,1,1,1.25,0V48.62A.63.63,0,0,1,28.62,49.25Z"/><path class="cls-1" d="M43.62,12.25h-13a.63.63,0,0,1,0-1.25h13a.63.63,0,1,1,0,1.25Z"/><path class="cls-1" d="M22.62,12.25h-13a.63.63,0,0,1,0-1.25h13a.63.63,0,1,1,0,1.25Z"/></g></g></svg>