<svg xmlns="http://www.w3.org/2000/svg" viewBox="0 0 43.25 53.25"><defs><style>.cls-1{fill:#262626;}</style></defs><g id="Слой_2" data-name="Слой 2"><g id="Layer_1" data-name="Layer 1"><path class="cls-1" d="M35.63,53.25a.63.63,0,0,1-.63-.63v-37a.63.63,0,0,1,.63-.62h5.56L28.63,1.54,16.06,15h5.57a.62.62,0,0,1,.62.62V37h6.38a.63.63,0,0,1,.57.38.62.62,0,0,1-.12.67l-14,15a.63.63,0,0,1-.91,0l-14-15a.62.62,0,0,1-.12-.67A.64.64,0,0,1,.63,37H7V.62a.63.63,0,0,1,1.25,0v37a.63.63,0,0,1-.62.63H2.06L14.63,51.71,27.19,38.25H21.63a.63.63,0,0,1-.63-.63V16.25H14.63a.64.64,0,0,1-.58-.38.62.62,0,0,1,.12-.67l14-15a.63.63,0,0,1,.91,0l14,15a.62.62,0,0,1,.12.67.63.63,0,0,1-.57.38H36.25V52.62A.63.63,0,0,1,35.63,53.25Z"/></g></g></svg>