<svg xmlns="http://www.w3.org/2000/svg" viewBox="0 0 53.25 53.25"><defs><style>.cls-1{fill:#262626;}</style></defs><g id="Слой_2" data-name="Слой 2"><g id="Layer_1" data-name="Layer 1"><path class="cls-1" d="M22.62,45.25A22.63,22.63,0,1,1,45.25,22.62a.63.63,0,1,1-1.25,0A21.36,21.36,0,1,0,27.28,43.49.64.64,0,0,1,28,44a.63.63,0,0,1-.48.74A22.57,22.57,0,0,1,22.62,45.25Z"/><path class="cls-1" d="M22.62,45.25C15.66,45.25,10,35.1,10,22.62S15.66,0,22.62,0,35.25,10.15,35.25,22.62a.63.63,0,1,1-1.25,0C34,10.84,28.9,1.25,22.62,1.25S11.25,10.84,11.25,22.62,16.35,44,22.62,44a.63.63,0,1,1,0,1.25Z"/><path class="cls-1" d="M22.62,45.25a.63.63,0,0,1-.62-.63V.62a.63.63,0,0,1,1.25,0v44A.63.63,0,0,1,22.62,45.25Z"/><path class="cls-1" d="M27.62,23.25H.62A.63.63,0,0,1,.62,22h27a.63.63,0,1,1,0,1.25Z"/><path class="cls-1" d="M41.68,12.25H3.57a.63.63,0,0,1,0-1.25H41.68a.63.63,0,0,1,0,1.25Z"/><path class="cls-1" d="M27.62,34.25h-24a.63.63,0,0,1,0-1.25H27.62a.63.63,0,1,1,0,1.25Z"/><path class="cls-1" d="M46.62,53.25h-16a.63.63,0,0,1-.62-.63v-30a.62.62,0,0,1,.62-.62h22a.63.63,0,0,1,.63.62v24a.67.67,0,0,1-.18.45l-6,6A.67.67,0,0,1,46.62,53.25ZM31.25,52H46.37L52,46.37V23.25H31.25Z"/><path class="cls-1" d="M46.62,53.25a.59.59,0,0,1-.23,0,.61.61,0,0,1-.39-.58v-6a.62.62,0,0,1,.62-.62h6a.61.61,0,0,1,.58.39.62.62,0,0,1-.13.68l-6,6A.63.63,0,0,1,46.62,53.25Zm.63-6v3.87l3.87-3.87Z"/></g></g></svg>