<svg xmlns="http://www.w3.org/2000/svg" viewBox="0 0 47.25 53.25"><defs><style>.cls-1{fill:#262626;}</style></defs><g id="Слой_2" data-name="Слой 2"><g id="Layer_1" data-name="Layer 1"><path class="cls-1" d="M31.62,53.25h-28A3.63,3.63,0,0,1,0,49.62v-46A3.63,3.63,0,0,1,3.62,0h28a3.63,3.63,0,0,1,3.63,3.62v5a.63.63,0,1,1-1.25,0v-5a2.38,2.38,0,0,0-2.38-2.37h-28A2.38,2.38,0,0,0,1.25,3.62v46A2.38,2.38,0,0,0,3.62,52h28A2.39,2.39,0,0,0,34,49.62v-9a.63.63,0,0,1,1.25,0v9A3.64,3.64,0,0,1,31.62,53.25Z"/><circle class="cls-1" cx="24.63" cy="3.63" r="1"/><path class="cls-1" d="M21.62,4.25h-8a.63.63,0,0,1,0-1.25h8a.63.63,0,1,1,0,1.25Z"/><path class="cls-1" d="M24.62,50.25h-14a.63.63,0,0,1,0-1.25h14a.63.63,0,1,1,0,1.25Z"/><path class="cls-1" d="M42.62,32.17a.71.71,0,0,1-.31-.08.63.63,0,0,1-.31-.54V17.7a.63.63,0,0,1,.31-.54.64.64,0,0,1,.63,0,8.62,8.62,0,0,1,0,14.93A.72.72,0,0,1,42.62,32.17Zm.63-13.28V30.36a7.36,7.36,0,0,0,0-11.47Z"/><path class="cls-1" d="M42.62,41.25a.57.57,0,0,1-.22,0l-22.89-9H9.62A2.63,2.63,0,0,1,7,29.62v-10A2.63,2.63,0,0,1,9.62,17h9.89L42.4,8a.63.63,0,0,1,.85.58v32a.63.63,0,0,1-.27.52A.66.66,0,0,1,42.62,41.25Zm-33-23a1.38,1.38,0,0,0-1.37,1.37v10A1.38,1.38,0,0,0,9.62,31h10a.59.59,0,0,1,.23,0L42,39.71V9.54L19.85,18.21a.59.59,0,0,1-.23,0Z"/><path class="cls-1" d="M17.62,44.25A2.63,2.63,0,0,1,15,41.62v-10a.62.62,0,0,1,.62-.62h4a.63.63,0,0,1,.63.62v10A2.63,2.63,0,0,1,17.62,44.25Zm-1.37-12v9.37a1.38,1.38,0,1,0,2.75,0V32.25Z"/><path class="cls-1" d="M19.62,28.25a.63.63,0,0,1-.62-.63v-6a.63.63,0,0,1,1.25,0v6A.63.63,0,0,1,19.62,28.25Z"/><path class="cls-1" d="M15.62,28.25a.63.63,0,0,1-.62-.63v-6a.63.63,0,0,1,1.25,0v6A.63.63,0,0,1,15.62,28.25Z"/><path class="cls-1" d="M11.62,28.25a.63.63,0,0,1-.62-.63v-6a.63.63,0,0,1,1.25,0v6A.63.63,0,0,1,11.62,28.25Z"/></g></g></svg>