<svg xmlns="http://www.w3.org/2000/svg" viewBox="0 0 53.25 53.25"><defs><style>.cls-1{fill:#262626;}</style></defs><g id="Слой_2" data-name="Слой 2"><g id="Layer_1" data-name="Layer 1"><path class="cls-1" d="M26.62,53.25A26.63,26.63,0,1,1,53.25,26.62,26.65,26.65,0,0,1,26.62,53.25Zm0-52A25.38,25.38,0,1,0,52,26.62,25.4,25.4,0,0,0,26.62,1.25Z"/><path class="cls-1" d="M26.62,47.25A20.63,20.63,0,1,1,47.25,26.62,20.65,20.65,0,0,1,26.62,47.25Zm0-40A19.38,19.38,0,1,0,46,26.62,19.39,19.39,0,0,0,26.62,7.25Z"/><path class="cls-1" d="M10.62,27.25h-4a.63.63,0,0,1,0-1.25h4a.63.63,0,1,1,0,1.25Z"/><path class="cls-1" d="M46.62,27.25h-4a.63.63,0,0,1,0-1.25h4a.63.63,0,1,1,0,1.25Z"/><path class="cls-1" d="M26.62,47.25a.63.63,0,0,1-.62-.63v-4a.63.63,0,0,1,1.25,0v4A.63.63,0,0,1,26.62,47.25Z"/><path class="cls-1" d="M26.62,11.25a.63.63,0,0,1-.62-.63v-4a.63.63,0,0,1,1.25,0v4A.63.63,0,0,1,26.62,11.25Z"/><path class="cls-1" d="M15.62,38.25a.62.62,0,0,1-.44-.18.64.64,0,0,1-.12-.71l7-15a.62.62,0,0,1,.3-.3l15-7a.62.62,0,0,1,.83.83l-7,15a.62.62,0,0,1-.3.3l-15,7A.66.66,0,0,1,15.62,38.25ZM23.1,23.1,16.92,36.33l13.23-6.18,6.18-13.23Zm7.52,7.52h0Z"/><path class="cls-1" d="M30.62,31.25a.64.64,0,0,1-.44-.18l-8-8a.63.63,0,0,1,.89-.89l8,8a.63.63,0,0,1-.45,1.07Z"/></g></g></svg>