<svg xmlns="http://www.w3.org/2000/svg" viewBox="0 0 53.25 53.25"><defs><style>.cls-1{fill:#262626;}</style></defs><g id="Слой_2" data-name="Слой 2"><g id="Layer_1" data-name="Layer 1"><path class="cls-1" d="M48.62,53.25a4.64,4.64,0,0,1-3.27-1.35L33,39.43a.58.58,0,0,1-.18-.5.57.57,0,0,1,.27-.45A20.44,20.44,0,0,0,38.51,33a.67.67,0,0,1,.46-.27.61.61,0,0,1,.5.18L51.9,45.35h0a4.63,4.63,0,0,1-3.28,7.9ZM34.39,39.08,46.24,51A3.37,3.37,0,0,0,51,46.24L39.12,34.34A21.48,21.48,0,0,1,34.39,39.08Z"/><path class="cls-1" d="M21.62,43.25a21.65,21.65,0,1,1,12.16-3.74A21.65,21.65,0,0,1,21.62,43.25Zm0-42A20.37,20.37,0,1,0,42,21.62,20.4,20.4,0,0,0,21.62,1.25Z"/><path class="cls-1" d="M21.62,33.25a.63.63,0,0,1-.62-.63v-14a.63.63,0,0,1,1.25,0v14A.63.63,0,0,1,21.62,33.25Z"/><path class="cls-1" d="M25.62,33.25a.63.63,0,0,1-.62-.63v-18a.63.63,0,0,1,1.25,0v18A.63.63,0,0,1,25.62,33.25Z"/><path class="cls-1" d="M29.62,33.25a.63.63,0,0,1-.62-.63v-16a.63.63,0,0,1,1.25,0v16A.63.63,0,0,1,29.62,33.25Z"/><path class="cls-1" d="M9.62,33.25A.63.63,0,0,1,9,32.62v-6a.63.63,0,0,1,1.25,0v6A.63.63,0,0,1,9.62,33.25Z"/><path class="cls-1" d="M13.62,33.25a.63.63,0,0,1-.62-.63v-12a.63.63,0,0,1,1.25,0v12A.63.63,0,0,1,13.62,33.25Z"/><path class="cls-1" d="M17.62,33.25a.63.63,0,0,1-.62-.63v-8a.63.63,0,0,1,1.25,0v8A.63.63,0,0,1,17.62,33.25Z"/><path class="cls-1" d="M33.62,33.25a.63.63,0,0,1-.62-.63v-22a.63.63,0,0,1,1.25,0v22A.63.63,0,0,1,33.62,33.25Z"/></g></g></svg>