<svg xmlns="http://www.w3.org/2000/svg" viewBox="0 0 53.25 49.25"><defs><style>.cls-1{fill:#262626;}</style></defs><g id="Слой_2" data-name="Слой 2"><g id="Layer_1" data-name="Layer 1"><path class="cls-1" d="M44.84,35.13H41.62a.63.63,0,0,1,0-1.25h3.22A7.15,7.15,0,0,0,46.2,19.71a.62.62,0,0,1-.45-.35.67.67,0,0,1,0-.57,6,6,0,0,0-9.2-7.35.63.63,0,0,1-.63.12.64.64,0,0,1-.41-.51,11.26,11.26,0,0,0-22.42,1.46,11.42,11.42,0,0,0,.2,2.07.62.62,0,0,1-.74.73,9.39,9.39,0,1,0-1.93,18.57h3a.63.63,0,1,1,0,1.25h-3A10.64,10.64,0,1,1,12,13.94a11.68,11.68,0,0,1-.09-1.43A12.51,12.51,0,0,1,36.59,9.84a7.15,7.15,0,0,1,4-1.21,7.21,7.21,0,0,1,6.64,10,8.4,8.4,0,0,1-2.38,16.46Z"/><path class="cls-1" d="M29.43,49.25H25.82a1.29,1.29,0,0,1-1.26-1l-1-3.83-3.45,2a1.29,1.29,0,0,1-1.59-.2L16,43.69a1.3,1.3,0,0,1-.19-1.59l2-3.38-3.86-1a1.29,1.29,0,0,1-1-1.26V32.82a1.29,1.29,0,0,1,1-1.26l3.83-1-2-3.45a1.29,1.29,0,0,1,.2-1.59L18.56,23a1.3,1.3,0,0,1,1.59-.19l3.38,2,1-3.86a1.29,1.29,0,0,1,1.26-1h3.61a1.29,1.29,0,0,1,1.26,1l1,3.83,3.45-2a1.29,1.29,0,0,1,1.59.2l2.56,2.55a1.3,1.3,0,0,1,.19,1.59l-2,3.38,3.86,1h0a1.29,1.29,0,0,1,1,1.26v3.61a1.29,1.29,0,0,1-1,1.26l-3.83,1,2,3.45a1.29,1.29,0,0,1-.2,1.59l-2.55,2.55a1.29,1.29,0,0,1-1.59.2l-3.38-2-1,3.86A1.29,1.29,0,0,1,29.43,49.25Zm-5.88-6.1a1.44,1.44,0,0,1,.5.1,1.29,1.29,0,0,1,.76.89l1,3.82,3.66,0,1-3.86a1.29,1.29,0,0,1,.76-.89,1.26,1.26,0,0,1,1.16.09l3.39,2,2.61-2.57-2-3.44a1.29,1.29,0,0,1,.8-1.92l3.82-1,0-3.66.12-.66-.16.61-3.82-1a1.29,1.29,0,0,1-.8-1.92l2-3.39L35.8,23.89l-3.44,2A1.26,1.26,0,0,1,31.2,26a1.29,1.29,0,0,1-.76-.89l-1-3.82-3.66,0-1,3.86a1.29,1.29,0,0,1-.76.89,1.26,1.26,0,0,1-1.16-.09l-3.39-2-2.61,2.57,2,3.44a1.29,1.29,0,0,1-.8,1.92l-3.82,1,0,3.66,3.86,1a1.29,1.29,0,0,1,.8,1.92l-2,3.39,2.57,2.61,3.44-2A1.21,1.21,0,0,1,23.55,43.15Z"/><path class="cls-1" d="M27.62,39.62a5,5,0,1,1,5-5A5,5,0,0,1,27.62,39.62Zm0-8.74a3.75,3.75,0,1,0,3.76,3.74A3.75,3.75,0,0,0,27.62,30.88Z"/></g></g></svg>