<svg xmlns="http://www.w3.org/2000/svg" viewBox="0 0 53.25 47.25"><defs><style>.cls-1{fill:#262626;}</style></defs><g id="Слой_2" data-name="Слой 2"><g id="Layer_1" data-name="Layer 1"><path class="cls-1" d="M32.62,40.25h-12a3.63,3.63,0,0,1,0-7.25h12a3.63,3.63,0,1,1,0,7.25Zm-12-6a2.38,2.38,0,0,0,0,4.75h12a2.38,2.38,0,1,0,0-4.75Z"/><path class="cls-1" d="M32.62,7.25h-12A3.63,3.63,0,0,1,17,3.62v-3A.62.62,0,0,1,17.62,0h18a.63.63,0,0,1,.63.62v3A3.64,3.64,0,0,1,32.62,7.25Zm-14.37-6V3.62A2.38,2.38,0,0,0,20.62,6h12A2.39,2.39,0,0,0,35,3.62V1.25Z"/><path class="cls-1" d="M29.62,40.25h-6a.63.63,0,0,1-.62-.63v-6a.62.62,0,0,1,.62-.62h6a.63.63,0,0,1,.63.62v6A.63.63,0,0,1,29.62,40.25ZM24.25,39H29V34.25H24.25Z"/><path class="cls-1" d="M6.62,36.25h-3A3.63,3.63,0,0,1,0,32.62v-16A3.63,3.63,0,0,1,3.62,13h3a.63.63,0,0,1,.63.62v22A.63.63,0,0,1,6.62,36.25Zm-3-22a2.38,2.38,0,0,0-2.37,2.37v16A2.38,2.38,0,0,0,3.62,35H6V14.25Z"/><path class="cls-1" d="M49.62,36.25h-3a.63.63,0,0,1-.62-.63v-22a.62.62,0,0,1,.62-.62h3a3.63,3.63,0,0,1,3.63,3.62v16A3.64,3.64,0,0,1,49.62,36.25ZM47.25,35h2.37A2.39,2.39,0,0,0,52,32.62v-16a2.38,2.38,0,0,0-2.38-2.37H47.25Z"/><path class="cls-1" d="M33.62,28.25a4.63,4.63,0,1,1,4.63-4.63A4.63,4.63,0,0,1,33.62,28.25Zm0-8A3.38,3.38,0,1,0,37,23.62,3.37,3.37,0,0,0,33.62,20.25Z"/><path class="cls-1" d="M19.62,28.25a4.63,4.63,0,1,1,4.63-4.63A4.63,4.63,0,0,1,19.62,28.25Zm0-8A3.38,3.38,0,1,0,23,23.62,3.37,3.37,0,0,0,19.62,20.25Z"/><path class="cls-1" d="M38.62,47.25h-24A8.64,8.64,0,0,1,6,38.62v-30A8.63,8.63,0,0,1,14.62,0h24a8.64,8.64,0,0,1,8.63,8.62v30A8.64,8.64,0,0,1,38.62,47.25Zm-24-46A7.38,7.38,0,0,0,7.25,8.62v30A7.39,7.39,0,0,0,14.62,46h24A7.39,7.39,0,0,0,46,38.62v-30a7.39,7.39,0,0,0-7.38-7.37Z"/><path class="cls-1" d="M43.62,14.25h-34a.63.63,0,0,1,0-1.25h34a.63.63,0,1,1,0,1.25Z"/></g></g></svg>