<svg xmlns="http://www.w3.org/2000/svg" viewBox="0 0 53.25 53.25"><defs><style>.cls-1{fill:#262626;}</style></defs><g id="Слой_2" data-name="Слой 2"><g id="Layer_1" data-name="Layer 1"><path class="cls-1" d="M49.62,16.25h-46A.63.63,0,0,1,3,15.62v-4A.62.62,0,0,1,3.62,11h46a.63.63,0,0,1,.63.62v4A.63.63,0,0,1,49.62,16.25ZM4.25,15H49V12.25H4.25Z"/><path class="cls-1" d="M52.62,12.25H.62A.63.63,0,0,1,0,11.62V.62A.62.62,0,0,1,.62,0h52a.63.63,0,0,1,.63.62v11A.63.63,0,0,1,52.62,12.25ZM1.25,11H52V1.25H1.25Z"/><circle class="cls-1" cx="6.63" cy="6.13" r="1"/><circle class="cls-1" cx="10.63" cy="6.13" r="1"/><circle class="cls-1" cx="14.63" cy="6.13" r="1"/><path class="cls-1" d="M46.62,8.75A.63.63,0,0,1,46,8.12v-4a.63.63,0,0,1,1.25,0v4A.63.63,0,0,1,46.62,8.75Z"/><path class="cls-1" d="M42.62,8.75A.63.63,0,0,1,42,8.12v-4a.63.63,0,0,1,1.25,0v4A.63.63,0,0,1,42.62,8.75Z"/><path class="cls-1" d="M38.62,8.75A.63.63,0,0,1,38,8.12v-4a.63.63,0,0,1,1.25,0v4A.63.63,0,0,1,38.62,8.75Z"/><path class="cls-1" d="M34.62,8.75A.63.63,0,0,1,34,8.12v-4a.63.63,0,0,1,1.25,0v4A.63.63,0,0,1,34.62,8.75Z"/><path class="cls-1" d="M30.62,8.75A.63.63,0,0,1,30,8.12v-4a.63.63,0,0,1,1.25,0v4A.63.63,0,0,1,30.62,8.75Z"/><path class="cls-1" d="M49.62,31.25h-46A.63.63,0,0,1,3,30.62v-4A.62.62,0,0,1,3.62,26h46a.63.63,0,0,1,.63.62v4A.63.63,0,0,1,49.62,31.25ZM4.25,30H49V27.25H4.25Z"/><path class="cls-1" d="M52.62,27.25H.62A.63.63,0,0,1,0,26.62v-11A.62.62,0,0,1,.62,15h52a.63.63,0,0,1,.63.62v11A.63.63,0,0,1,52.62,27.25ZM1.25,26H52V16.25H1.25Z"/><circle class="cls-1" cx="6.63" cy="21.13" r="1"/><circle class="cls-1" cx="10.63" cy="21.13" r="1"/><circle class="cls-1" cx="14.63" cy="21.13" r="1"/><path class="cls-1" d="M46.62,23.75a.63.63,0,0,1-.62-.63v-4a.63.63,0,0,1,1.25,0v4A.63.63,0,0,1,46.62,23.75Z"/><path class="cls-1" d="M42.62,23.75a.63.63,0,0,1-.62-.63v-4a.63.63,0,0,1,1.25,0v4A.63.63,0,0,1,42.62,23.75Z"/><path class="cls-1" d="M38.62,23.75a.63.63,0,0,1-.62-.63v-4a.63.63,0,0,1,1.25,0v4A.63.63,0,0,1,38.62,23.75Z"/><path class="cls-1" d="M34.62,23.75a.63.63,0,0,1-.62-.63v-4a.63.63,0,0,1,1.25,0v4A.63.63,0,0,1,34.62,23.75Z"/><path class="cls-1" d="M30.62,23.75a.63.63,0,0,1-.62-.63v-4a.63.63,0,0,1,1.25,0v4A.63.63,0,0,1,30.62,23.75Z"/><path class="cls-1" d="M52.62,42.25H.62A.63.63,0,0,1,0,41.62v-11A.62.62,0,0,1,.62,30h52a.63.63,0,0,1,.63.62v11A.63.63,0,0,1,52.62,42.25ZM1.25,41H52V31.25H1.25Z"/><circle class="cls-1" cx="6.63" cy="36.13" r="1"/><circle class="cls-1" cx="10.63" cy="36.13" r="1"/><circle class="cls-1" cx="14.63" cy="36.13" r="1"/><path class="cls-1" d="M46.62,38.75a.63.63,0,0,1-.62-.63v-4a.63.63,0,0,1,1.25,0v4A.63.63,0,0,1,46.62,38.75Z"/><path class="cls-1" d="M42.62,38.75a.63.63,0,0,1-.62-.63v-4a.63.63,0,0,1,1.25,0v4A.63.63,0,0,1,42.62,38.75Z"/><path class="cls-1" d="M38.62,38.75a.63.63,0,0,1-.62-.63v-4a.63.63,0,0,1,1.25,0v4A.63.63,0,0,1,38.62,38.75Z"/><path class="cls-1" d="M34.62,38.75a.63.63,0,0,1-.62-.63v-4a.63.63,0,0,1,1.25,0v4A.63.63,0,0,1,34.62,38.75Z"/><path class="cls-1" d="M30.62,38.75a.63.63,0,0,1-.62-.63v-4a.63.63,0,0,1,1.25,0v4A.63.63,0,0,1,30.62,38.75Z"/><path class="cls-1" d="M26.62,49.25a.63.63,0,0,1-.62-.63v-7a.63.63,0,0,1,1.25,0v7A.63.63,0,0,1,26.62,49.25Z"/><path class="cls-1" d="M24.62,51.25h-16a.63.63,0,0,1,0-1.25h16a.63.63,0,1,1,0,1.25Z"/><path class="cls-1" d="M44.62,51.25h-16a.63.63,0,0,1,0-1.25h16a.63.63,0,1,1,0,1.25Z"/><path class="cls-1" d="M26.62,53.25a2.63,2.63,0,1,1,2.63-2.63A2.63,2.63,0,0,1,26.62,53.25Zm0-4A1.38,1.38,0,1,0,28,50.62,1.38,1.38,0,0,0,26.62,49.25Z"/></g></g></svg>