<svg xmlns="http://www.w3.org/2000/svg" viewBox="0 0 53.25 37.25"><defs><style>.cls-1{fill:#262626;}</style></defs><g id="Слой_2" data-name="Слой 2"><g id="Layer_1" data-name="Layer 1"><path class="cls-1" d="M26.62,37.25C12.09,37.25.58,19.71.1,19a.62.62,0,0,1,0-.67C.58,17.54,12.09,0,26.62,0S52.67,17.54,53.15,18.29a.62.62,0,0,1,0,.67C52.67,19.71,41.16,37.25,26.62,37.25ZM1.38,18.62C3.07,21.08,13.85,36,26.62,36S50.18,21.08,51.87,18.62C50.18,16.17,39.4,1.25,26.62,1.25S3.07,16.17,1.38,18.62Z"/><path class="cls-1" d="M26.62,31.25A12.63,12.63,0,1,1,39.25,18.62,12.63,12.63,0,0,1,26.62,31.25Zm0-24A11.38,11.38,0,1,0,38,18.62,11.38,11.38,0,0,0,26.62,7.25Z"/><path class="cls-1" d="M44.29,9.58a.62.62,0,0,1-.44-.18.64.64,0,0,1,0-.89L52.18.18a.64.64,0,0,1,.89,0,.64.64,0,0,1,0,.89L44.74,9.4A.66.66,0,0,1,44.29,9.58Z"/><path class="cls-1" d="M.62,37.25a.62.62,0,0,1-.44-.18.64.64,0,0,1,0-.89l22-22a.64.64,0,0,1,.89,0l7.55,7.56,7.05-7a.62.62,0,0,1,.88.88l-7.48,7.49a.64.64,0,0,1-.89,0l-7.56-7.56L1.07,37.07A.64.64,0,0,1,.62,37.25Z"/><path class="cls-1" d="M52.62,7.25A.63.63,0,0,1,52,6.62V1.25H46.62a.63.63,0,0,1,0-1.25h6a.63.63,0,0,1,.63.62v6A.63.63,0,0,1,52.62,7.25Z"/></g></g></svg>