<svg xmlns="http://www.w3.org/2000/svg" viewBox="0 0 53.25 53.25"><defs><style>.cls-1{fill:#262626;}</style></defs><g id="Слой_2" data-name="Слой 2"><g id="Layer_1" data-name="Layer 1"><path class="cls-1" d="M21.62,36.25A14.63,14.63,0,1,1,36.25,21.62,14.64,14.64,0,0,1,21.62,36.25Zm0-28A13.38,13.38,0,1,0,35,21.62,13.39,13.39,0,0,0,21.62,8.25Z"/><path class="cls-1" d="M11.73,32.15a.66.66,0,0,1-.45-.18.64.64,0,0,1,0-.89l19.8-19.8a.63.63,0,0,1,.89.89L12.17,32A.62.62,0,0,1,11.73,32.15Z"/><path class="cls-1" d="M31.52,32.15a.62.62,0,0,1-.44-.18l-9.9-9.9a.67.67,0,0,1-.18-.45v-14a.63.63,0,0,1,1.25,0V21.37L32,31.08A.64.64,0,0,1,32,32,.66.66,0,0,1,31.52,32.15Z"/><path class="cls-1" d="M48.62,53.25a4.62,4.62,0,0,1-3.27-1.35L33,39.43a.58.58,0,0,1-.18-.5.57.57,0,0,1,.27-.45A20.44,20.44,0,0,0,38.51,33a.67.67,0,0,1,.46-.27.65.65,0,0,1,.5.18L51.9,45.35a4.63,4.63,0,0,1-3.28,7.9ZM34.39,39.08,46.24,51A3.44,3.44,0,0,0,51,51a3.37,3.37,0,0,0,0-4.77h0L39.12,34.34A21.7,21.7,0,0,1,34.39,39.08Z"/><path class="cls-1" d="M21.62,43.25a21.65,21.65,0,1,1,12.16-3.74A21.65,21.65,0,0,1,21.62,43.25Zm0-42A20.37,20.37,0,1,0,42,21.62,20.4,20.4,0,0,0,21.62,1.25Z"/></g></g></svg>