<svg xmlns="http://www.w3.org/2000/svg" viewBox="0 0 53.25 53.25"><defs><style>.cls-1{fill:#262626;}</style></defs><g id="Слой_2" data-name="Слой 2"><g id="Layer_1" data-name="Layer 1"><path class="cls-1" d="M31.62,53.25h-10a.63.63,0,0,1-.62-.63V39.91L3.21,24.09A.62.62,0,0,1,3.62,23h46A.62.62,0,0,1,50,24.09L32.25,39.91V52.62A.63.63,0,0,1,31.62,53.25ZM22.25,52H31V39.62a.64.64,0,0,1,.21-.46L48,24.25H5.27L22,39.16a.64.64,0,0,1,.21.46Z"/><path class="cls-1" d="M52.62,24.25H.62A.63.63,0,0,1,0,23.62v-7A.62.62,0,0,1,.62,16h52a.63.63,0,0,1,.63.62v7A.63.63,0,0,1,52.62,24.25ZM1.25,23H52V17.25H1.25Z"/><path class="cls-1" d="M26.62,13.25a.63.63,0,0,1-.62-.63V.62a.63.63,0,0,1,1.25,0v12A.63.63,0,0,1,26.62,13.25Z"/><path class="cls-1" d="M20.62,13.25a.63.63,0,0,1-.62-.63v-6a.63.63,0,0,1,1.25,0v6A.63.63,0,0,1,20.62,13.25Z"/><path class="cls-1" d="M14.62,13.25a.63.63,0,0,1-.62-.63v-10a.63.63,0,0,1,1.25,0v10A.63.63,0,0,1,14.62,13.25Z"/><path class="cls-1" d="M8.62,13.25A.63.63,0,0,1,8,12.62v-5a.63.63,0,0,1,1.25,0v5A.63.63,0,0,1,8.62,13.25Z"/><path class="cls-1" d="M44.62,13.25a.63.63,0,0,1-.62-.63v-7a.63.63,0,0,1,1.25,0v7A.63.63,0,0,1,44.62,13.25Z"/><path class="cls-1" d="M38.62,13.25a.63.63,0,0,1-.62-.63v-5a.63.63,0,0,1,1.25,0v5A.63.63,0,0,1,38.62,13.25Z"/><path class="cls-1" d="M32.62,13.25a.63.63,0,0,1-.62-.63v-9a.63.63,0,0,1,1.25,0v9A.63.63,0,0,1,32.62,13.25Z"/></g></g></svg>