<svg xmlns="http://www.w3.org/2000/svg" viewBox="0 0 47.25 53.25"><defs><style>.cls-1{fill:#262626;}</style></defs><g id="Слой_2" data-name="Слой 2"><g id="Layer_1" data-name="Layer 1"><path class="cls-1" d="M15.65,53.25a.61.61,0,0,1-.39-.13.63.63,0,0,1-.24-.49V44.78a.38.38,0,0,0-.37-.38h-7A1.63,1.63,0,0,1,6,42.78V35.67a.37.37,0,0,0-.27-.36L.45,33.73a.66.66,0,0,1-.4-.35.65.65,0,0,1,0-.53L5.33,22.11a9.08,9.08,0,0,0,.91-3.31A20.57,20.57,0,0,1,31.39.52a20.21,20.21,0,0,1,15.86,20,21.93,21.93,0,0,1-2.1,9.65,34.53,34.53,0,0,0-3.43,15v1.43a.63.63,0,0,1-.48.61l-25.45,6ZM1.51,32.74l4.58,1.37a1.65,1.65,0,0,1,1.16,1.56v7.11a.38.38,0,0,0,.37.37h7a1.63,1.63,0,0,1,1.62,1.63v7.06l24.2-5.71V45.2A35.7,35.7,0,0,1,44,29.64a20.77,20.77,0,0,0,2-9.1A19,19,0,0,0,31.12,1.74,19.33,19.33,0,0,0,7.49,18.91a10.44,10.44,0,0,1-1,3.75ZM41.09,46.63h0Z"/><path class="cls-1" d="M33.71,30.17h-14a2.63,2.63,0,0,1-2.63-2.62v-14a2.63,2.63,0,0,1,2.63-2.63h14a2.62,2.62,0,0,1,2.62,2.63v14A2.62,2.62,0,0,1,33.71,30.17Zm-14-18a1.38,1.38,0,0,0-1.38,1.38v14a1.38,1.38,0,0,0,1.38,1.37h14a1.37,1.37,0,0,0,1.37-1.37v-14a1.37,1.37,0,0,0-1.37-1.38Z"/><path class="cls-1" d="M30.71,25.17h-8a.63.63,0,0,1-.63-.62v-8a.63.63,0,0,1,.63-.63h8a.63.63,0,0,1,.62.63v8A.62.62,0,0,1,30.71,25.17Zm-7.38-1.25h6.75V17.17H23.33Z"/><path class="cls-1" d="M38.71,15.17h-3a.63.63,0,1,1,0-1.25h3a.63.63,0,0,1,0,1.25Z"/><path class="cls-1" d="M17.71,15.17h-3a.63.63,0,1,1,0-1.25h3a.63.63,0,0,1,0,1.25Z"/><path class="cls-1" d="M38.71,19.17h-3a.63.63,0,1,1,0-1.25h3a.63.63,0,0,1,0,1.25Z"/><path class="cls-1" d="M17.71,19.17h-3a.63.63,0,1,1,0-1.25h3a.63.63,0,0,1,0,1.25Z"/><path class="cls-1" d="M38.71,23.17h-3a.63.63,0,1,1,0-1.25h3a.63.63,0,0,1,0,1.25Z"/><path class="cls-1" d="M17.71,23.17h-3a.63.63,0,1,1,0-1.25h3a.63.63,0,0,1,0,1.25Z"/><path class="cls-1" d="M38.71,27.17h-3a.63.63,0,1,1,0-1.25h3a.63.63,0,0,1,0,1.25Z"/><path class="cls-1" d="M17.71,27.17h-3a.63.63,0,1,1,0-1.25h3a.63.63,0,0,1,0,1.25Z"/><path class="cls-1" d="M20.71,12.17a.63.63,0,0,1-.63-.62v-3a.63.63,0,1,1,1.25,0v3A.62.62,0,0,1,20.71,12.17Z"/><path class="cls-1" d="M20.71,33.17a.63.63,0,0,1-.63-.62v-3a.63.63,0,1,1,1.25,0v3A.62.62,0,0,1,20.71,33.17Z"/><path class="cls-1" d="M24.71,12.17a.63.63,0,0,1-.63-.62v-3a.63.63,0,1,1,1.25,0v3A.62.62,0,0,1,24.71,12.17Z"/><path class="cls-1" d="M24.71,33.17a.63.63,0,0,1-.63-.62v-3a.63.63,0,1,1,1.25,0v3A.62.62,0,0,1,24.71,33.17Z"/><path class="cls-1" d="M28.71,12.17a.63.63,0,0,1-.63-.62v-3a.63.63,0,1,1,1.25,0v3A.62.62,0,0,1,28.71,12.17Z"/><path class="cls-1" d="M28.71,33.17a.63.63,0,0,1-.63-.62v-3a.63.63,0,1,1,1.25,0v3A.62.62,0,0,1,28.71,33.17Z"/><path class="cls-1" d="M32.71,12.17a.63.63,0,0,1-.63-.62v-3a.63.63,0,1,1,1.25,0v3A.62.62,0,0,1,32.71,12.17Z"/><path class="cls-1" d="M32.71,33.17a.63.63,0,0,1-.63-.62v-3a.63.63,0,1,1,1.25,0v3A.62.62,0,0,1,32.71,33.17Z"/></g></g></svg>