<svg xmlns="http://www.w3.org/2000/svg" viewBox="0 0 53.25 53.25"><defs><style>.cls-1{fill:#262626;}</style></defs><g id="Слой_2" data-name="Слой 2"><g id="Layer_1" data-name="Layer 1"><path class="cls-1" d="M17.56,31.25H13.69a1.35,1.35,0,0,1-1.31-1l-1-4.1-.47-.6.32.54L7.59,28.25A1.35,1.35,0,0,1,6,28L3.21,25.3A1.35,1.35,0,0,1,3,23.66L5.18,20l-.06-.15-4.1-1a1.35,1.35,0,0,1-1-1.31V13.69a1.35,1.35,0,0,1,1-1.31l4.1-1,.06-.14L3,7.59A1.35,1.35,0,0,1,3.21,6L6,3.21A1.35,1.35,0,0,1,7.59,3l3.62,2.18.15-.06,1-4.1a1.35,1.35,0,0,1,1.31-1h3.87a1.35,1.35,0,0,1,1.31,1l1,4.1.47.6L20,5.18,23.66,3a1.35,1.35,0,0,1,1.64.21L28,6a1.35,1.35,0,0,1,.21,1.64l-2.18,3.63.06.14,4.1,1h0a1.35,1.35,0,0,1,1,1.31v3.87a1.35,1.35,0,0,1-1,1.31l-4.1,1-.59.47.53-.32,2.18,3.62A1.35,1.35,0,0,1,28,25.3L25.3,28a1.35,1.35,0,0,1-1.64.21L20,26.07l-.15.06-1,4.1A1.35,1.35,0,0,1,17.56,31.25Zm-6.3-6.44a1.33,1.33,0,0,1,1.31,1l1,4.1a.11.11,0,0,0,.1.07h3.87a.11.11,0,0,0,.1-.07l1-4.1a1.35,1.35,0,0,1,2-.83l3.62,2.17a.09.09,0,0,0,.12,0l2.74-2.74a.09.09,0,0,0,0-.12L25,20.68a1.36,1.36,0,0,1-.09-1.21,1.33,1.33,0,0,1,.92-.79l4.1-1a.11.11,0,0,0,.07-.1V13.69a.11.11,0,0,0-.07-.1l-4.1-1a1.35,1.35,0,0,1-.83-2L27.17,7a.09.09,0,0,0,0-.12L24.42,4.09a.09.09,0,0,0-.12,0L20.68,6.25a1.35,1.35,0,0,1-2-.83l-1-4.1a.11.11,0,0,0-.1-.07H13.69a.11.11,0,0,0-.1.07l-1,4.1a1.35,1.35,0,0,1-2,.83L7,4.08a.09.09,0,0,0-.12,0L4.09,6.83a.09.09,0,0,0,0,.12l2.17,3.62a1.35,1.35,0,0,1-.83,2l-4.1,1a.11.11,0,0,0-.07.1v3.87a.11.11,0,0,0,.07.1l4.1,1a1.31,1.31,0,0,1,.92.79,1.36,1.36,0,0,1-.09,1.21L4.08,24.3a.09.09,0,0,0,0,.12l2.74,2.74a.09.09,0,0,0,.12,0L10.57,25A1.33,1.33,0,0,1,11.26,24.81Z"/><path class="cls-1" d="M15.62,21.75a6.13,6.13,0,1,1,6.13-6.13A6.13,6.13,0,0,1,15.62,21.75Zm0-11a4.88,4.88,0,1,0,4.88,4.87A4.88,4.88,0,0,0,15.62,10.75Z"/><path class="cls-1" d="M42.21,40.65a1.15,1.15,0,0,1-1-.67l-1.24-2.66-2.19,2a1.14,1.14,0,0,1-1.41.09L34,37.79a1.13,1.13,0,0,1-.43-1.35l1-2.75-2.93-.17a1.12,1.12,0,0,1-1.06-.93L30,29.83a1.15,1.15,0,0,1,.65-1.26l2.66-1.24-2-2.19a1.14,1.14,0,0,1-.09-1.41l1.58-2.33A1.14,1.14,0,0,1,34.22,21L37,22,37.14,19A1.16,1.16,0,0,1,38.07,18l2.77-.53a1.15,1.15,0,0,1,1.26.65l1.24,2.66,2.19-2a1.16,1.16,0,0,1,1.41-.1l2.33,1.58a1.15,1.15,0,0,1,.44,1.35l-1,2.76,2.93.16a1.15,1.15,0,0,1,1.07.93l.53,2.77a1.15,1.15,0,0,1-.65,1.26l-2.66,1.24,2,2.18a1.17,1.17,0,0,1,.1,1.42L50.4,36.67a1.15,1.15,0,0,1-1.35.43l-2.76-1L46.13,39a1.14,1.14,0,0,1-.93,1.06l-2.77.54ZM40,36l.24,0a1.16,1.16,0,0,1,.81.65l1.26,2.71,2.61-.5.17-3a1.14,1.14,0,0,1,1.54-1l2.81,1,1.5-2.2-2-2.23a1.15,1.15,0,0,1,.37-1.81L52,28.4l-.51-2.61-3-.17a1.12,1.12,0,0,1-.89-.52,1.09,1.09,0,0,1-.12-1l1-2.82L46.3,19.77l-2.23,2a1.15,1.15,0,0,1-1.81-.37L41,18.68l-2.61.5-.17,3a1.14,1.14,0,0,1-1.54,1l-2.81-1-1.49,2.21,2,2.23a1.13,1.13,0,0,1,.26,1,1.12,1.12,0,0,1-.64.81l-2.71,1.26.5,2.61,3,.17a1.13,1.13,0,0,1,1,1.54l-1,2.81L37,38.29l2.23-2A1.15,1.15,0,0,1,40,36Zm11.6-10.21Z"/><path class="cls-1" d="M41.63,32.66a3.63,3.63,0,0,1-3-5.66,3.63,3.63,0,1,1,6,4.07,3.61,3.61,0,0,1-2.32,1.52A3.23,3.23,0,0,1,41.63,32.66Zm0-6a2.28,2.28,0,0,0-.45,0,2.38,2.38,0,0,0-1.52,1,2.35,2.35,0,0,0-.37,1.78,2.4,2.4,0,0,0,1,1.52A2.38,2.38,0,0,0,44,28.59h0a2.38,2.38,0,0,0-2.33-1.92Z"/><path class="cls-1" d="M22,53.25a.55.55,0,0,1-.18,0l-2.45-.41a1.07,1.07,0,0,1-.91-1l-.19-2.49-2.32.92a1.1,1.1,0,0,1-1.28-.38l-1.45-2a1.08,1.08,0,0,1,.06-1.33l1.62-1.9-2.29-1a1.09,1.09,0,0,1-.63-1.18L12.35,40a1.09,1.09,0,0,1,1-.91l2.49-.19-.92-2.32a1.08,1.08,0,0,1,.39-1.28l2-1.45a1.08,1.08,0,0,1,1.33.06l1.9,1.62,1-2.29a1.1,1.1,0,0,1,1.18-.63l2.45.41a1.08,1.08,0,0,1,.91,1l.19,2.49,2.32-.92a1.1,1.1,0,0,1,1.28.38l1.45,2a1.08,1.08,0,0,1-.06,1.33l-1.62,1.9,2.29,1a1.11,1.11,0,0,1,.64,1.18l-.42,2.45a1.08,1.08,0,0,1-1,.91l-2.49.19.92,2.32a1.09,1.09,0,0,1-.38,1.28l-2,1.45a1.08,1.08,0,0,1-1.33-.06L24,50.31,23,52.6A1.09,1.09,0,0,1,22,53.25Zm-2.3-1.64,2.2.37,1-2.37a1.09,1.09,0,0,1,.76-.62,1.07,1.07,0,0,1,.94.23l2,1.68,1.82-1.3-.95-2.4a1.09,1.09,0,0,1,.93-1.49l2.57-.2.37-2.2-2.37-1a1.09,1.09,0,0,1-.39-1.7l1.68-2-1.3-1.82-2.4,1A1.09,1.09,0,0,1,25,36.81l-.2-2.57-2.2-.37-1,2.37a1.06,1.06,0,0,1-.76.62,1,1,0,0,1-.94-.23l-2-1.68-1.82,1.3.95,2.4a1.09,1.09,0,0,1-.93,1.49l-2.57.2-.37,2.2,2.37,1a1.09,1.09,0,0,1,.62.75,1.11,1.11,0,0,1-.23,1l-1.68,2,1.3,1.82,2.4-1a1.09,1.09,0,0,1,1,.09,1.11,1.11,0,0,1,.51.84Zm-4.6-6.89Z"/><path class="cls-1" d="M22.25,46.05a3,3,0,0,1-.52,0,3.13,3.13,0,1,1,3.6-2.57h0A3.14,3.14,0,0,1,22.25,46.05Zm0-5a1.88,1.88,0,0,0-1.84,1.57,1.87,1.87,0,1,0,3.69.61,1.81,1.81,0,0,0-.32-1.39,1.83,1.83,0,0,0-1.22-.76A1.63,1.63,0,0,0,22.24,41.05Zm2.47,2.29h0Z"/></g></g></svg>