<svg xmlns="http://www.w3.org/2000/svg" viewBox="0 0 53.25 53.25"><defs><style>.cls-1{fill:#262626;}</style></defs><g id="Слой_2" data-name="Слой 2"><g id="Layer_1" data-name="Layer 1"><path class="cls-1" d="M30.62,53.25h-16a.63.63,0,0,1-.62-.63v-6a.62.62,0,0,1,.62-.62h16a.63.63,0,0,1,.63.62v6A.63.63,0,0,1,30.62,53.25ZM15.25,52H30V47.25H15.25Z"/><path class="cls-1" d="M50.62,37.25h-22A2.63,2.63,0,0,1,26,34.62v-6a.63.63,0,0,1,1.25,0v6A1.38,1.38,0,0,0,28.62,36h22A1.38,1.38,0,0,0,52,34.62v-32a1.38,1.38,0,0,0-1.38-1.37h-22a1.38,1.38,0,0,0-1.37,1.37v13a.63.63,0,1,1-1.25,0v-13A2.63,2.63,0,0,1,28.62,0h22a2.63,2.63,0,0,1,2.63,2.62v32A2.63,2.63,0,0,1,50.62,37.25Z"/><path class="cls-1" d="M42.62,47.25h-40A2.63,2.63,0,0,1,0,44.62v-32A2.63,2.63,0,0,1,2.62,10h21a.63.63,0,1,1,0,1.25h-21a1.38,1.38,0,0,0-1.37,1.37v32A1.38,1.38,0,0,0,2.62,46h40A1.38,1.38,0,0,0,44,44.62v-5a.63.63,0,0,1,1.25,0v5A2.63,2.63,0,0,1,42.62,47.25Z"/><path class="cls-1" d="M36.62,53.25h-28a.63.63,0,0,1,0-1.25h28a.63.63,0,1,1,0,1.25Z"/><circle class="cls-1" cx="39.63" cy="3.63" r="1"/><path class="cls-1" d="M44.62,34.25h-10a.63.63,0,0,1,0-1.25h10a.63.63,0,1,1,0,1.25Z"/><path class="cls-1" d="M34.62,22.25a.62.62,0,0,1-.44-.18.64.64,0,0,1,0-.89l2.56-2.56-2.56-2.55a.63.63,0,0,1,.89-.89l3,3a.64.64,0,0,1,0,.89l-3,3A.63.63,0,0,1,34.62,22.25Z"/><path class="cls-1" d="M37.62,19.25h-22a.63.63,0,0,1,0-1.25h22a.63.63,0,1,1,0,1.25Z"/><path class="cls-1" d="M18.62,29.25a.62.62,0,0,1-.44-.18l-3-3a.64.64,0,0,1,0-.89l3-3a.63.63,0,0,1,.89.89l-2.56,2.55,2.56,2.56a.64.64,0,0,1,0,.89A.63.63,0,0,1,18.62,29.25Z"/><path class="cls-1" d="M37.62,26.25h-22a.63.63,0,0,1,0-1.25h22a.63.63,0,1,1,0,1.25Z"/></g></g></svg>