<svg xmlns="http://www.w3.org/2000/svg" viewBox="0 0 53.25 51.25"><defs><style>.cls-1{fill:#262626;}</style></defs><g id="Слой_2" data-name="Слой 2"><g id="Layer_1" data-name="Layer 1"><path class="cls-1" d="M2.62,19.25A.63.63,0,0,1,2,18.62v-4a.63.63,0,0,1,1.25,0v4A.63.63,0,0,1,2.62,19.25Z"/><path class="cls-1" d="M2.62,37.25A.63.63,0,0,1,2,36.62v-4a.63.63,0,0,1,1.25,0v4A.63.63,0,0,1,2.62,37.25Z"/><path class="cls-1" d="M22.62,15.25H.62A.63.63,0,0,1,0,14.62V.62A.62.62,0,0,1,.62,0h50a.63.63,0,0,1,.63.62v13a.63.63,0,1,1-1.25,0V1.25H1.25V14H22.62a.63.63,0,1,1,0,1.25Z"/><path class="cls-1" d="M8.12,11.25a3.63,3.63,0,1,1,3.63-3.63A3.63,3.63,0,0,1,8.12,11.25Zm0-6A2.38,2.38,0,1,0,10.5,7.62,2.38,2.38,0,0,0,8.12,5.25Z"/><circle class="cls-1" cx="15.13" cy="7.63" r="1"/><circle class="cls-1" cx="19.13" cy="7.63" r="1"/><circle class="cls-1" cx="23.13" cy="7.63" r="1"/><path class="cls-1" d="M20.62,33.25H.62A.63.63,0,0,1,0,32.62v-14A.62.62,0,0,1,.62,18h20a.63.63,0,1,1,0,1.25H1.25V32H20.62a.63.63,0,1,1,0,1.25Z"/><path class="cls-1" d="M8.12,29.25a3.63,3.63,0,1,1,3.63-3.63A3.63,3.63,0,0,1,8.12,29.25Zm0-6a2.38,2.38,0,1,0,2.38,2.37A2.38,2.38,0,0,0,8.12,23.25Z"/><circle class="cls-1" cx="15.13" cy="25.63" r="1"/><circle class="cls-1" cx="19.13" cy="25.63" r="1"/><path class="cls-1" d="M50.62,51.25H.62A.63.63,0,0,1,0,50.62v-14A.62.62,0,0,1,.62,36h22a.63.63,0,1,1,0,1.25H1.25V50H50V37.62a.63.63,0,0,1,1.25,0v13A.63.63,0,0,1,50.62,51.25Z"/><path class="cls-1" d="M8.12,47.25a3.63,3.63,0,1,1,3.63-3.63A3.63,3.63,0,0,1,8.12,47.25Zm0-6a2.38,2.38,0,1,0,2.38,2.37A2.38,2.38,0,0,0,8.12,41.25Z"/><circle class="cls-1" cx="15.13" cy="43.63" r="1"/><circle class="cls-1" cx="19.13" cy="43.63" r="1"/><circle class="cls-1" cx="23.13" cy="43.63" r="1"/><circle class="cls-1" cx="27.13" cy="7.63" r="1"/><circle class="cls-1" cx="27.13" cy="43.63" r="1"/><circle class="cls-1" cx="31.13" cy="7.63" r="1"/><circle class="cls-1" cx="31.13" cy="43.63" r="1"/><path class="cls-1" d="M37.62,41.25A15.63,15.63,0,1,1,53.25,25.62,15.64,15.64,0,0,1,37.62,41.25Zm0-30A14.38,14.38,0,1,0,52,25.62,14.39,14.39,0,0,0,37.62,11.25Z"/><path class="cls-1" d="M37.62,41.25c-5.3,0-9.62-7-9.62-15.63S32.32,10,37.62,10s9.63,7,9.63,15.62S42.93,41.25,37.62,41.25Zm0-30c-4.61,0-8.37,6.45-8.37,14.37S33,40,37.62,40,46,33.55,46,25.62,42.24,11.25,37.62,11.25Z"/><path class="cls-1" d="M37.62,41.25a.63.63,0,0,1-.62-.63v-30a.63.63,0,0,1,1.25,0v30A.63.63,0,0,1,37.62,41.25Z"/><path class="cls-1" d="M52.62,26.25h-30a.63.63,0,0,1,0-1.25h30a.63.63,0,1,1,0,1.25Z"/><path class="cls-1" d="M50.62,33.25h-26a.63.63,0,0,1,0-1.25h26a.63.63,0,1,1,0,1.25Z"/><path class="cls-1" d="M50.62,19.25h-26a.63.63,0,0,1,0-1.25h26a.63.63,0,1,1,0,1.25Z"/></g></g></svg>