<svg xmlns="http://www.w3.org/2000/svg" viewBox="0 0 53.25 53.25"><defs><style>.cls-1{fill:#262626;}</style></defs><g id="Слой_2" data-name="Слой 2"><g id="Layer_1" data-name="Layer 1"><path class="cls-1" d="M26.62,38.25A11.63,11.63,0,1,1,38.25,26.62,11.63,11.63,0,0,1,26.62,38.25Zm0-22A10.38,10.38,0,1,0,37,26.62,10.38,10.38,0,0,0,26.62,16.25Z"/><path class="cls-1" d="M26.62,45.25A18.63,18.63,0,1,1,45.25,26.62,18.65,18.65,0,0,1,26.62,45.25Zm0-36A17.38,17.38,0,1,0,44,26.62,17.39,17.39,0,0,0,26.62,9.25Z"/><path class="cls-1" d="M26.62,51.25A24.63,24.63,0,1,1,51.25,26.62,24.66,24.66,0,0,1,26.62,51.25Zm0-48A23.38,23.38,0,1,0,50,26.62,23.4,23.4,0,0,0,26.62,3.25Z"/><path class="cls-1" d="M52.62,27.25h-15a.63.63,0,0,1,0-1.25h15a.63.63,0,1,1,0,1.25Z"/><path class="cls-1" d="M15.62,27.25H.62A.63.63,0,0,1,.62,26h15a.63.63,0,1,1,0,1.25Z"/><path class="cls-1" d="M26.62,16.25a.63.63,0,0,1-.62-.63V.62a.63.63,0,0,1,1.25,0v15A.63.63,0,0,1,26.62,16.25Z"/><path class="cls-1" d="M26.62,53.25a.63.63,0,0,1-.62-.63v-15a.63.63,0,0,1,1.25,0v15A.63.63,0,0,1,26.62,53.25Z"/></g></g></svg>