<svg xmlns="http://www.w3.org/2000/svg" viewBox="0 0 53.25 53.25"><defs><style>.cls-1{fill:#262626;}</style></defs><g id="Слой_2" data-name="Слой 2"><g id="Layer_1" data-name="Layer 1"><path class="cls-1" d="M26.62,53.25A26.63,26.63,0,1,1,53.25,26.62,26.65,26.65,0,0,1,26.62,53.25Zm0-52A25.38,25.38,0,1,0,52,26.62,25.4,25.4,0,0,0,26.62,1.25Z"/><path class="cls-1" d="M26.62,37.25A10.63,10.63,0,1,1,37.25,26.62,10.64,10.64,0,0,1,26.62,37.25Zm0-20A9.38,9.38,0,1,0,36,26.62,9.39,9.39,0,0,0,26.62,17.25Z"/><path class="cls-1" d="M33.7,20.18a.66.66,0,0,1-.45-.18.64.64,0,0,1,0-.89L44.57,7.8a.62.62,0,1,1,.88.88L34.14,20A.62.62,0,0,1,33.7,20.18Z"/><path class="cls-1" d="M8.24,45.63a.62.62,0,0,1-.44-.18.61.61,0,0,1,0-.88L19.11,33.25a.63.63,0,0,1,.89.89L8.68,45.45A.62.62,0,0,1,8.24,45.63Z"/><path class="cls-1" d="M26.62,17.25a.63.63,0,0,1-.62-.63V.62a.63.63,0,0,1,1.25,0v16A.63.63,0,0,1,26.62,17.25Z"/><path class="cls-1" d="M45,45.63a.62.62,0,0,1-.44-.18L33.25,34.14a.63.63,0,0,1,.89-.89L45.45,44.57a.61.61,0,0,1,0,.88A.62.62,0,0,1,45,45.63Z"/></g></g></svg>