<svg xmlns="http://www.w3.org/2000/svg" viewBox="0 0 53.25 53.25"><defs><style>.cls-1{fill:#262626;}</style></defs><g id="Слой_2" data-name="Слой 2"><g id="Layer_1" data-name="Layer 1"><path class="cls-1" d="M25.62,53.25a.6.6,0,0,1-.34-.11.62.62,0,0,1-.26-.67l1.8-7.22h-6.2A2.63,2.63,0,0,1,18,42.62v-22A2.63,2.63,0,0,1,20.62,18h30a2.63,2.63,0,0,1,2.63,2.62v22a2.63,2.63,0,0,1-2.63,2.63H36.83L26,53.13A.63.63,0,0,1,25.62,53.25Zm-5-34a1.38,1.38,0,0,0-1.37,1.37v22A1.38,1.38,0,0,0,20.62,44h7a.64.64,0,0,1,.5.24.61.61,0,0,1,.11.54l-1.58,6.33,9.61-7a.58.58,0,0,1,.36-.12h14A1.38,1.38,0,0,0,52,42.62v-22a1.38,1.38,0,0,0-1.38-1.37Z"/><path class="cls-1" d="M40.82,40a.59.59,0,0,1-.29-.07l-4.91-2.58L30.72,40a.61.61,0,0,1-.66,0,.64.64,0,0,1-.25-.62l.94-5.46-4-3.87a.62.62,0,0,1-.16-.64.63.63,0,0,1,.5-.43l5.49-.79,2.45-5a.66.66,0,0,1,1.13,0l2.45,5,5.49.79a.63.63,0,0,1,.5.43.62.62,0,0,1-.16.64l-4,3.87.94,5.46a.64.64,0,0,1-.25.62A.7.7,0,0,1,40.82,40Zm-5.2-4a.78.78,0,0,1,.3.07L40,38.28l-.78-4.54a.67.67,0,0,1,.18-.56L42.69,30l-4.56-.67a.59.59,0,0,1-.47-.34l-2-4.13-2,4.13a.59.59,0,0,1-.47.34L28.56,30l3.3,3.21a.67.67,0,0,1,.18.56l-.78,4.54,4.07-2.15A.77.77,0,0,1,35.62,36.06Z"/><path class="cls-1" d="M44.62,53.25H.62A.63.63,0,0,1,0,52.62v-42a.67.67,0,0,1,.18-.44l10-10A.67.67,0,0,1,10.62,0h34a.63.63,0,0,1,.63.62v15a.63.63,0,1,1-1.25,0V1.25H10.88L1.25,10.88V52H44V47.62a.63.63,0,0,1,1.25,0v5A.63.63,0,0,1,44.62,53.25Z"/><path class="cls-1" d="M10.62,11.25H.62a.61.61,0,0,1-.57-.39.62.62,0,0,1,.13-.68l10-10a.62.62,0,0,1,.68-.13.61.61,0,0,1,.39.57v10A.63.63,0,0,1,10.62,11.25ZM2.13,10H10V2.13Z"/></g></g></svg>