<svg xmlns="http://www.w3.org/2000/svg" viewBox="0 0 53.25 53.25"><defs><style>.cls-1{fill:#262626;}</style></defs><g id="Слой_2" data-name="Слой 2"><g id="Layer_1" data-name="Layer 1"><path class="cls-1" d="M44.84,35.13H24.62a.63.63,0,0,1,0-1.25H44.84A7.15,7.15,0,0,0,46.2,19.71a.62.62,0,0,1-.45-.35.67.67,0,0,1,0-.57,6,6,0,0,0-9.2-7.35.63.63,0,0,1-.63.12.64.64,0,0,1-.41-.51,11.26,11.26,0,0,0-22.42,1.46,11.42,11.42,0,0,0,.2,2.07.62.62,0,0,1-.74.73,9.19,9.19,0,0,0-1.93-.21,9.39,9.39,0,0,0,0,18.78h8a.63.63,0,1,1,0,1.25h-8A10.64,10.64,0,1,1,12,13.94a11.68,11.68,0,0,1-.09-1.43A12.51,12.51,0,0,1,36.59,9.84a7.15,7.15,0,0,1,4-1.21,7.21,7.21,0,0,1,6.64,10,8.4,8.4,0,0,1-2.38,16.46Z"/><path class="cls-1" d="M28.62,53.25A10.64,10.64,0,0,1,18,42.62a.63.63,0,0,1,1.25,0,9.38,9.38,0,1,0,18.75,0V34.51a.63.63,0,1,1,1.25,0v8.11A10.64,10.64,0,0,1,28.62,53.25Z"/><path class="cls-1" d="M28.62,47.25A4.64,4.64,0,0,1,24,42.62v-21a.63.63,0,0,1,1.25,0v21a3.38,3.38,0,1,0,6.75,0V34.51a.63.63,0,1,1,1.25,0v8.11A4.64,4.64,0,0,1,28.62,47.25Z"/><path class="cls-1" d="M18.62,43.25a.63.63,0,0,1-.62-.63v-21a.63.63,0,0,1,1.25,0v21A.63.63,0,0,1,18.62,43.25Z"/><path class="cls-1" d="M28.62,22.25h-4a.63.63,0,0,1,0-1.25h2.5l-5.5-5.49L16.13,21h2.49a.63.63,0,1,1,0,1.25h-4a.61.61,0,0,1-.57-.39.62.62,0,0,1,.13-.68l7-7a.64.64,0,0,1,.89,0l7,7a.62.62,0,0,1,.13.68A.61.61,0,0,1,28.62,22.25Z"/></g></g></svg>