<svg xmlns="http://www.w3.org/2000/svg" viewBox="0 0 53.25 53.25"><defs><style>.cls-1{fill:#262626;}</style></defs><g id="Слой_2" data-name="Слой 2"><g id="Layer_1" data-name="Layer 1"><path class="cls-1" d="M40,53.25a.62.62,0,0,1-.59-.41l-7.4-20a.62.62,0,0,1,.8-.8l20,7.4a.63.63,0,0,1,.41.59.62.62,0,0,1-.41.58l-9,3.23-3.23,9a.62.62,0,0,1-.58.41ZM33.68,33.68,40,50.8l2.74-7.66a.65.65,0,0,1,.38-.38L50.8,40Z"/><path class="cls-1" d="M50.62,37.25a.63.63,0,0,1,0-1.25A1.38,1.38,0,0,0,52,34.62v-32a1.38,1.38,0,0,0-1.38-1.37h-48A1.38,1.38,0,0,0,1.25,2.62v32A1.38,1.38,0,0,0,2.62,36h28a.63.63,0,1,1,0,1.25h-28A2.63,2.63,0,0,1,0,34.62v-32A2.63,2.63,0,0,1,2.62,0h48a2.63,2.63,0,0,1,2.63,2.62v32A2.63,2.63,0,0,1,50.62,37.25Z"/><path class="cls-1" d="M32.76,29.32a1.86,1.86,0,0,1-.89-.22l-5-2.62a.65.65,0,0,0-.62,0l-5,2.61a1.92,1.92,0,0,1-2.78-2l.95-5.54a.66.66,0,0,0-.19-.59l-4-3.92a1.91,1.91,0,0,1,1.06-3.26L21.88,13a.68.68,0,0,0,.5-.37l2.48-5a1.93,1.93,0,0,1,3.44,0h0l2.49,5a.64.64,0,0,0,.5.37l5.56.81a1.87,1.87,0,0,1,1.54,1.3,1.9,1.9,0,0,1-.48,2l-4,3.92a.72.72,0,0,0-.19.59l1,5.54a1.92,1.92,0,0,1-1.88,2.24Zm-6.18-4.16a1.86,1.86,0,0,1,.89.22l5,2.61a.66.66,0,0,0,.7,0,.63.63,0,0,0,.26-.65l-.95-5.54A1.93,1.93,0,0,1,33,20.06l4-3.92a.68.68,0,0,0,.17-.69.69.69,0,0,0-.54-.45l-5.56-.81a1.89,1.89,0,0,1-1.44-1l-2.49-5a.68.68,0,0,0-1.19,0l-2.49,5a1.92,1.92,0,0,1-1.44,1L16.49,15a.66.66,0,0,0-.53.45.66.66,0,0,0,.17.69l4,3.92a1.9,1.9,0,0,1,.55,1.69l-.95,5.54a.67.67,0,0,0,1,.7l5-2.61A1.89,1.89,0,0,1,26.58,25.16Z"/></g></g></svg>