<svg xmlns="http://www.w3.org/2000/svg" viewBox="0 0 45.25 53.25"><defs><style>.cls-1{fill:#262626;}</style></defs><g id="Слой_2" data-name="Слой 2"><g id="Layer_1" data-name="Layer 1"><path class="cls-1" d="M44.62,53.25H.62A.63.63,0,0,1,0,52.62V.62A.62.62,0,0,1,.62,0h34a.67.67,0,0,1,.45.18l10,10a.67.67,0,0,1,.18.44v42A.63.63,0,0,1,44.62,53.25ZM1.25,52H44V10.88L34.37,1.25H1.25Z"/><path class="cls-1" d="M44.62,11.25h-10a.63.63,0,0,1-.62-.63V.62a.61.61,0,0,1,.39-.57.62.62,0,0,1,.68.13l10,10a.62.62,0,0,1,.13.68A.61.61,0,0,1,44.62,11.25ZM35.25,10h7.87L35.25,2.13Z"/><path class="cls-1" d="M23.62,11.25h-16a.63.63,0,0,1,0-1.25h16a.63.63,0,1,1,0,1.25Z"/><path class="cls-1" d="M14.62,16.25h-7a.63.63,0,0,1,0-1.25h7a.63.63,0,1,1,0,1.25Z"/><path class="cls-1" d="M37.62,16.25h-19a.63.63,0,0,1,0-1.25h19a.63.63,0,1,1,0,1.25Z"/><path class="cls-1" d="M24.62,21.25h-17a.63.63,0,0,1,0-1.25h17a.63.63,0,1,1,0,1.25Z"/><path class="cls-1" d="M37.62,21.25h-9a.63.63,0,0,1,0-1.25h9a.63.63,0,1,1,0,1.25Z"/><path class="cls-1" d="M15.62,26.25h-8a.63.63,0,0,1,0-1.25h8a.63.63,0,1,1,0,1.25Z"/><path class="cls-1" d="M30.62,26.25h-11a.63.63,0,0,1,0-1.25h11a.63.63,0,1,1,0,1.25Z"/><path class="cls-1" d="M7.62,47.25a.61.61,0,0,1-.41-.16.62.62,0,0,1,0-.88l7-7.83A.62.62,0,0,1,15,38.3l3.54,2.8,6.53-7.41a.62.62,0,0,1,.84-.08l4.64,3.54,6.61-7a.63.63,0,1,1,.91.87l-7,7.36a.62.62,0,0,1-.83.06L25.63,35l-6.54,7.41a.62.62,0,0,1-.85.08l-3.54-2.8L8.09,47A.61.61,0,0,1,7.62,47.25Z"/><path class="cls-1" d="M37.62,47.25h-30A.63.63,0,0,1,7,46.62v-16a.63.63,0,0,1,1.25,0V46H37.62a.63.63,0,1,1,0,1.25Z"/></g></g></svg>