<svg xmlns="http://www.w3.org/2000/svg" viewBox="0 0 41.25 53.25"><defs><style>.cls-1{fill:#262626;}</style></defs><g id="Слой_2" data-name="Слой 2"><g id="Layer_1" data-name="Layer 1"><path class="cls-1" d="M20.62,53.25a.59.59,0,0,1-.29-.07c-.72-.39-1.54-.8-2.41-1.24C10.78,48.35,0,42.93,0,31.38V8.63a.62.62,0,0,1,.39-.58l20-8a.55.55,0,0,1,.47,0l20,8a.62.62,0,0,1,.39.58V31.38c0,11.55-10.79,17-17.92,20.56-.88.44-1.69.85-2.41,1.24A.6.6,0,0,1,20.62,53.25ZM1.25,9.05V31.38c0,10.78,10.37,16,17.23,19.45.77.38,1.49.74,2.14,1.09.66-.35,1.38-.71,2.14-1.09C29.63,47.38,40,42.16,40,31.38V9.05L20.62,1.3ZM20.62,45.39a.58.58,0,0,1-.28-.07C13.31,41.75,7,38,7,31.38v-18a.64.64,0,0,1,.39-.58l13-5.2a.64.64,0,0,1,.47,0l13,5.2a.64.64,0,0,1,.39.58v18c0,6.62-6.31,10.37-13.34,13.94A.59.59,0,0,1,20.62,45.39ZM8.25,13.79V31.38c0,5.82,5.82,9.34,12.37,12.68C27.18,40.72,33,37.2,33,31.38V13.79L20.62,8.84Z"/><path class="cls-1" d="M24.53,32.75H16.72a.61.61,0,0,1-.5-.26.62.62,0,0,1-.09-.56l1.77-5.31a4.57,4.57,0,0,1-1.19-5.95,3.66,3.66,0,0,1,1.54-1.55,4.67,4.67,0,0,1,4.7,0A4.57,4.57,0,0,1,25.15,23a4.44,4.44,0,0,1-1.8,3.59l1.77,5.31a.62.62,0,0,1-.09.56A.61.61,0,0,1,24.53,32.75ZM17.59,31.5h6.07L22,26.56a.62.62,0,0,1,.28-.73,3.26,3.26,0,0,0,0-5.61,3.49,3.49,0,0,0-3.48,0,2.39,2.39,0,0,0-1,1A3.31,3.31,0,0,0,19,25.83a.62.62,0,0,1,.28.73Z"/></g></g></svg>